<?xml version="1.0" encoding="UTF-8"?>
<svg version="1.1" xmlns="http://www.w3.org/2000/svg" width="466" height="631">
<path d="M0 0 C0.99 0 1.98 0 3 0 C3.33 0.33 3.66 0.66 4 1 C4.99 0.67 5.98 0.34 7 0 C7.99 0.33 8.98 0.66 10 1 C10.66 0.67 11.32 0.34 12 0 C12 0.66 12 1.32 12 2 C13.01191406 1.9690625 14.02382813 1.938125 15.06640625 1.90625 C30.51408563 2.27441714 48.53770647 10.80517162 60 21 C60 21.66 60 22.32 60 23 C60.56589844 23.21011719 61.13179688 23.42023438 61.71484375 23.63671875 C64.8382431 25.50008007 66.42677901 27.88175597 68.5625 30.8125 C69.32691406 31.85019531 70.09132813 32.88789063 70.87890625 33.95703125 C76 41.3038674 76 41.3038674 76 44 C77.546875 43.9071875 77.546875 43.9071875 79.125 43.8125 C85.56784998 43.78944866 91.75907618 45.56093394 98 47 C98.928125 47.165 99.85625 47.33 100.8125 47.5 C103.37891507 48.08660916 104.34621455 48.99804919 106 51 C106.66 50.67 107.32 50.34 108 50 C108.33 50.99 108.66 51.98 109 53 C111.76009287 55.12684372 114.63532894 57.02800995 117.53125 58.96484375 C120.18266795 61.15058544 120.4083376 61.79474415 121 65 C119.83082031 65.26554687 118.66164063 65.53109375 117.45703125 65.8046875 C115.90880583 66.16124851 114.36063141 66.51803102 112.8125 66.875 C111.65911133 67.13603516 111.65911133 67.13603516 110.48242188 67.40234375 C106.49193791 68.32717694 102.77468173 69.37310504 99 71 C98.38125 71.12375 97.7625 71.2475 97.125 71.375 C93.7714718 72.36133182 90.99681667 74.21343621 88 76 C88.33 76.99 88.66 77.98 89 79 C88.29875 78.855625 87.5975 78.71125 86.875 78.5625 C82.99596331 79.15278819 81.79834799 80.72090925 79.421875 83.734375 C73.45787889 93.23744573 72.86388808 103.55304567 72.7890625 114.44140625 C72.76094876 116.74154302 72.73228413 119.04167312 72.703125 121.34179688 C72.66227812 124.92829874 72.62535628 128.51468209 72.59863281 132.10131836 C72.23659534 176.92218161 61.64593227 213.37734142 30 246 C29.4328125 246.61359375 28.865625 247.2271875 28.28125 247.859375 C27 249 27 249 25 249 C25 249.66 25 250.32 25 251 C23.67407227 252.23339844 23.67407227 252.23339844 21.81640625 253.609375 C21.13989014 254.1142041 20.46337402 254.6190332 19.76635742 255.13916016 C19.03908447 255.6707373 18.31181152 256.20231445 17.5625 256.75 C16.83200439 257.29060059 16.10150879 257.83120117 15.34887695 258.38818359 C10.33196924 262.08086814 5.2498305 265.64493591 0 269 C-0.99 269.66 -1.98 270.32 -3 271 C-4.33333333 271.33333333 -5.66666667 271.66666667 -7 272 C-9.09171074 272.91865674 -11.17395553 273.85896795 -13.25 274.8125 C-30.04850943 282.22413048 -48.14081327 284.3790395 -66.375 284.25 C-67.052211 284.24756287 -67.729422 284.24512573 -68.42715454 284.24261475 C-78.43378886 284.20042565 -88.13671079 283.73849342 -98 282 C-99.15757812 281.82082031 -100.31515625 281.64164062 -101.5078125 281.45703125 C-109.30746644 280.23084452 -109.30746644 280.23084452 -113 279 C-116.12225907 278.65731765 -116.12225907 278.65731765 -118.125 281 C-118.56199219 281.46019531 -118.99898437 281.92039062 -119.44921875 282.39453125 C-132.14800098 295.54112948 -151.45327345 309.95824915 -169.875 313.5625 C-170.57625 313.706875 -171.2775 313.85125 -172 314 C-172.33 314.66 -172.66 315.32 -173 316 C-173.51989502 315.83411377 -174.03979004 315.66822754 -174.57543945 315.49731445 C-177.70567768 314.85525471 -180.59784541 314.96201231 -183.79296875 315.04296875 C-185.15125925 315.06889492 -186.50957876 315.09333463 -187.86791992 315.11645508 C-188.92709122 315.1352623 -188.92709122 315.1352623 -190.00765991 315.15444946 C-202.50716442 315.34396581 -214.05076365 315.1259695 -226 311 C-227.17046875 310.60296875 -228.3409375 310.2059375 -229.546875 309.796875 C-236.2734308 307.34803671 -242.67964525 304.35278412 -249 301 C-249 300.34 -249 299.68 -249 299 C-246.25755801 296.63757306 -243.25661138 294.98880808 -240.0625 293.3125 C-235.57905558 290.89507524 -231.1716679 288.38302624 -226.8125 285.75 C-225.15154297 284.75226563 -225.15154297 284.75226563 -223.45703125 283.734375 C-222.64621094 283.16203125 -221.83539063 282.5896875 -221 282 C-221 281.34 -221 280.68 -221 280 C-220.278125 279.9175 -219.55625 279.835 -218.8125 279.75 C-215.41750362 278.84466763 -213.63347166 277.28696223 -211 275 C-207.28646566 272.52431044 -203.62375318 270.22651276 -199.6875 268.125 C-195.63187263 265.93044301 -191.77103445 263.6499161 -188 261 C-188.33 260.34 -188.66 259.68 -189 259 C-187.68 258.67 -186.36 258.34 -185 258 C-185 257.34 -185 256.68 -185 256 C-184.319375 256.103125 -183.63875 256.20625 -182.9375 256.3125 C-179.27447629 255.92281663 -177.58174711 254.52877024 -174.74609375 252.2890625 C-173 251 -173 251 -171.13891602 250.07763672 C-168.9939882 248.99697111 -167.0375115 247.78748336 -165.03125 246.46875 C-164.29519531 245.98792969 -163.55914062 245.50710938 -162.80078125 245.01171875 C-161.66189453 244.26341797 -161.66189453 244.26341797 -160.5 243.5 C-158.99088064 242.5084394 -157.48050448 241.51878839 -155.96875 240.53125 C-155.30294922 240.09361328 -154.63714844 239.65597656 -153.95117188 239.20507812 C-152 238 -152 238 -149.87695312 236.96679688 C-147.82974342 236.03295889 -147.82974342 236.03295889 -146 234 C-143.70261472 232.7638585 -141.40343721 231.5855028 -139.0625 230.4375 C-138.02222656 229.92219727 -138.02222656 229.92219727 -136.9609375 229.39648438 C-128.35915671 225.15649155 -119.68035355 221.0759921 -111 217 C-114.63 216.67 -118.26 216.34 -122 216 C-122.33 217.32 -122.66 218.64 -123 220 C-123.33 218.68 -123.66 217.36 -124 216 C-124.61488281 216.02320313 -125.22976562 216.04640625 -125.86328125 216.0703125 C-126.67152344 216.08835937 -127.47976562 216.10640625 -128.3125 216.125 C-129.11300781 216.14820313 -129.91351563 216.17140625 -130.73828125 216.1953125 C-133 216 -133 216 -136 214 C-137.40799145 213.52946962 -138.83575762 213.11611448 -140.2734375 212.74609375 C-141.0984375 212.53146484 -141.9234375 212.31683594 -142.7734375 212.09570312 C-143.63195312 211.87849609 -144.49046875 211.66128906 -145.375 211.4375 C-146.65117187 211.10588867 -146.65117187 211.10588867 -147.953125 210.76757812 C-151.28842586 209.90777705 -154.58373602 209.07374756 -157.9765625 208.47265625 C-160 208 -160 208 -162 206 C-162.99 205.67 -163.98 205.34 -165 205 C-166.34789347 204.01971384 -167.67913827 203.01641629 -169 202 C-170.80254163 200.81800549 -172.61575243 199.65217322 -174.4375 198.5 C-175.36433594 197.9121875 -176.29117188 197.324375 -177.24609375 196.71875 C-179.05201782 195.59164845 -180.87348497 194.4889987 -182.7109375 193.4140625 C-185.19296907 191.88079385 -186.97934941 190.09032819 -189 188 C-189.66 187.67 -190.32 187.34 -191 187 C-191 186.34 -191 185.68 -191 185 C-191.66 185 -192.32 185 -193 185 C-193 184.34 -193 183.68 -193 183 C-193.99 182.67 -194.98 182.34 -196 182 C-197.01351664 180.34151823 -198.01120795 178.67334039 -199 177 C-199.86625 176.13375 -200.7325 175.2675 -201.625 174.375 C-204 172 -204 172 -205 169 C-205.99 168.34 -206.98 167.68 -208 167 C-207.67 166.67 -207.34 166.34 -207 166 C-207.99 165.01 -208.98 164.02 -210 163 C-208 161 -208 161 -205.93701172 160.77294922 C-204.69588623 160.78865967 -204.69588623 160.78865967 -203.4296875 160.8046875 C-202.08583984 160.81435547 -202.08583984 160.81435547 -200.71484375 160.82421875 C-199.30912109 160.84935547 -199.30912109 160.84935547 -197.875 160.875 C-196.93011719 160.88402344 -195.98523438 160.89304687 -195.01171875 160.90234375 C-192.67422708 160.92595478 -190.33723877 160.95888484 -188 161 C-188.60837226 158.52950198 -188.60837226 158.52950198 -190 156 C-192.49996454 154.57148646 -192.49996454 154.57148646 -195.4375 153.75 C-196.40558594 153.43546875 -197.37367188 153.1209375 -198.37109375 152.796875 C-199.23863281 152.53390625 -200.10617188 152.2709375 -201 152 C-204 151 -204 151 -205 150 C-207.8684413 147.89767656 -207.8684413 147.89767656 -211 147 C-211 146.34 -211 145.68 -211 145 C-213.50257543 143.19687397 -216.10058429 141.58542896 -218.71484375 139.94921875 C-221.38194158 137.6742071 -221.72262952 136.42877123 -222 133 C-223.32 132.67 -224.64 132.34 -226 132 C-226 130.35 -226 128.7 -226 127 C-227.485 126.505 -227.485 126.505 -229 126 C-229.144375 124.96875 -229.28875 123.9375 -229.4375 122.875 C-229.91662743 119.57434438 -230.44569226 116.28858206 -231 113 C-221.71850291 111.57101016 -212.55711286 110.69825319 -203.17260742 110.34204102 C-198.95137146 110.28110048 -198.95137146 110.28110048 -195 109 C-195.00523682 107.95545654 -195.01047363 106.91091309 -195.01586914 105.8347168 C-195.03396598 101.96021379 -195.04544918 98.08571452 -195.05493164 94.21118164 C-195.05996113 92.53409192 -195.06678548 90.85700658 -195.07543945 89.17993164 C-195.08756559 86.769683 -195.09324215 84.35949232 -195.09765625 81.94921875 C-195.10281754 81.19912033 -195.10797882 80.44902191 -195.11329651 79.67619324 C-195.11363785 76.51048768 -195.00887343 74.02662028 -194 71 C-182.32162357 70.53629976 -171.13108667 71.67318233 -159.56640625 73.24609375 C-157.71099076 73.49778877 -155.85552443 73.74910937 -154 74 C-152.72165283 74.17619873 -152.72165283 74.17619873 -151.41748047 74.35595703 C-150.62873535 74.45634277 -149.83999023 74.55672852 -149.02734375 74.66015625 C-148.342771 74.75047119 -147.65819824 74.84078613 -146.95288086 74.93383789 C-144.95432751 75.10356079 -144.95432751 75.10356079 -142.93579102 74.39624023 C-142.29697998 74.26548096 -141.65816895 74.13472168 -141 74 C-139.515 74.99 -139.515 74.99 -138 76 C-138.33 76.33 -138.66 76.66 -139 77 C-138.44763672 77.15033691 -137.89527344 77.30067383 -137.32617188 77.45556641 C-113.40082757 84.01174505 -89.08215904 91.94604567 -69 107 C-68.14535156 107.62261719 -67.29070312 108.24523437 -66.41015625 108.88671875 C-55.25965448 117.35697664 -47.09983256 127.47660076 -41 140 C-41 140.66 -41 141.32 -41 142 C-40.34 142.33 -39.68 142.66 -39 143 C-35.50896698 153.65683763 -35.3431834 164.89979221 -35 176 C-33.68 176.66 -32.36 177.32 -31 178 C-30.09425388 172.56552328 -29.86195545 167.19189115 -29.8125 161.6875 C-29.79960937 160.98173828 -29.78671875 160.27597656 -29.7734375 159.54882812 C-29.76626357 155.80762474 -29.87112555 154.19331167 -32 151 C-32 150.01 -32 149.02 -32 148 C-32.99 147.67 -33.98 147.34 -35 147 C-33.68 147 -32.36 147 -31 147 C-31.61875 146.319375 -32.2375 145.63875 -32.875 144.9375 C-35.66528326 141.08034373 -36.50611565 137.28421511 -37.5 132.6875 C-37.92650065 130.75543811 -37.92650065 130.75543811 -40 129 C-40.66666667 127.66666667 -41.33333333 126.33333333 -42 125 C-43.52097602 123.47902398 -45.06739023 121.98343787 -46.625 120.5 C-49 118 -49 118 -49 116 C-49.66 115.67 -50.32 115.34 -51 115 C-51.78375 114.195625 -52.5675 113.39125 -53.375 112.5625 C-55.72688852 109.98690788 -55.72688852 109.98690788 -58.125 109 C-60 108 -60 108 -61.3125 105.75 C-62.90979148 103.14700648 -64.18900724 101.85121518 -66.5 99.9375 C-71.51737621 95.77571847 -73.55336202 92.50987092 -75 86 C-74.67 85.34 -74.34 84.68 -74 84 C-74.99 83.67 -75.98 83.34 -77 83 C-77 80.36 -77 77.72 -77 75 C-76.34 75 -75.68 75 -75 75 C-74.99742187 74.16339844 -74.99484375 73.32679688 -74.9921875 72.46484375 C-74.55867096 59.41599596 -70.29829422 48.90917849 -63.19921875 37.953125 C-61.84502155 35.91324111 -61.84502155 35.91324111 -61 33 C-59.37897032 31.28891311 -57.70496537 29.62746694 -56 28 C-55.25492188 27.2265625 -54.50984375 26.453125 -53.7421875 25.65625 C-50.78025362 22.78714025 -47.67321578 20.33736658 -44.375 17.875 C-40.17013592 14.79056045 -40.17013592 14.79056045 -36.3515625 11.2578125 C-34.61842876 9.64489613 -33.31002821 9.48416222 -31 9 C-28.9350661 8.21470366 -26.8729032 7.42210792 -24.8125 6.625 C-16.69803997 3.67506458 -8.51759648 2.2683588 0 1 C0 0.67 0 0.34 0 0 Z M19 46 C19 46.66 19 47.32 19 48 C17.35 47.67 15.7 47.34 14 47 C10.82917951 50.44654401 10.1575373 53.35264972 10 58 C10.77192895 60.52720688 11.79073488 62.62984037 13 65 C14.65 64.67 16.3 64.34 18 64 C18.33 65.65 18.66 67.3 19 69 C23.84429385 69.48442939 27.08370325 69.49979823 31.4375 67.125 C35.08047439 63.55325696 35.86529546 58.95237263 36 54 C35.38179143 50.42762101 35.38179143 50.42762101 33 48 C29.37292527 46.44983943 25.92224334 46 22 46 C21.01 46 20.02 46 19 46 Z M-182 158 C-182 158.66 -182 159.32 -182 160 C-182.99 160.495 -182.99 160.495 -184 161 C-183.01 161 -182.02 161 -181 161 C-180.67 160.01 -180.34 159.02 -180 158 C-180.66 158 -181.32 158 -182 158 Z M-179 159 C-178.67 159.66 -178.34 160.32 -178 161 C-176.35 161 -174.7 161 -173 161 C-175.81509993 158.7226499 -175.81509993 158.7226499 -179 159 Z M-34 179 C-34.66 179.66 -35.32 180.32 -36 181 C-36 181.99 -36 182.98 -36 184 C-35.34 184 -34.68 184 -34 184 C-33.67 184.66 -33.34 185.32 -33 186 C-31.66667905 183.3333581 -32.32897967 181.83319697 -33 179 C-33.33 179 -33.66 179 -34 179 Z M-32 180 C-31 182 -31 182 -31 182 Z M-38 184 C-38.39832031 185.09699219 -38.79664063 186.19398438 -39.20703125 187.32421875 C-39.74192112 188.77874382 -40.27709225 190.23316548 -40.8125 191.6875 C-41.07353516 192.40873047 -41.33457031 193.12996094 -41.60351562 193.87304688 C-42.79685578 197.09948507 -43.96507921 199.9426246 -45.76171875 202.89453125 C-46.17035156 203.58933594 -46.57898438 204.28414062 -47 205 C-46.67 205.66 -46.34 206.32 -46 207 C-45.34 206.67 -44.68 206.34 -44 206 C-44 205.01 -44 204.02 -44 203 C-43.01 202.67 -42.02 202.34 -41 202 C-41 201.01 -41 200.02 -41 199 C-40.01 198.67 -39.02 198.34 -38 198 C-38 196.02 -38 194.04 -38 192 C-37.34 192.66 -36.68 193.32 -36 194 C-34.18698242 189.56906802 -34.18698242 189.56906802 -35 185 C-35.99 184.67 -36.98 184.34 -38 184 Z " fill="#FCD400" transform="translate(332,121)"/>
<path d="M0 0 C1.9375 0.3125 1.9375 0.3125 4 1 C5.46748145 5.40244434 5.99611357 7.48730366 5 12 C4.87163413 13.68000492 4.77895526 15.36304911 4.71875 17.046875 C4.68136719 17.97371094 4.64398438 18.90054688 4.60546875 19.85546875 C4.53458767 21.80076062 4.46428421 23.74607361 4.39453125 25.69140625 C4.35714844 26.61308594 4.31976563 27.53476563 4.28125 28.484375 C4.25095703 29.32709961 4.22066406 30.16982422 4.18945312 31.03808594 C4 33 4 33 3 34 C0.70848583 34.08790975 -1.58572524 34.10694038 -3.87890625 34.09765625 C-4.90889992 34.09553383 -4.90889992 34.09553383 -5.95970154 34.09336853 C-8.16067801 34.08775479 -10.36155409 34.07520007 -12.5625 34.0625 C-14.05143083 34.05748676 -15.54036324 34.05292355 -17.02929688 34.04882812 C-20.68623075 34.03778093 -24.34310558 34.02050713 -28 34 C-29.80767937 30.89310717 -30.25619463 28.62213165 -30.265625 25.04296875 C-30.26820312 24.09486328 -30.27078125 23.14675781 -30.2734375 22.16992188 C-30.26570313 21.18572266 -30.25796875 20.20152344 -30.25 19.1875 C-30.25773437 18.21490234 -30.26546875 17.24230469 -30.2734375 16.24023438 C-30.27085938 15.28826172 -30.26828125 14.33628906 -30.265625 13.35546875 C-30.26336914 12.49590576 -30.26111328 11.63634277 -30.25878906 10.75073242 C-30 8 -30 8 -28 1 C-18.76 1 -9.52 1 0 1 C0 0.67 0 0.34 0 0 Z " fill="#F9D300" transform="translate(103,113)"/>
<path d="M0 0 C1.94512691 9.74398483 2.08091356 21.31455625 0 31 C-4.52065428 31.049377 -9.04115217 31.08570823 -13.56201172 31.10986328 C-15.10045098 31.11993118 -16.63887107 31.13358646 -18.17724609 31.15087891 C-20.38644133 31.17509317 -22.59538395 31.18647491 -24.8046875 31.1953125 C-25.49432587 31.20563507 -26.18396423 31.21595764 -26.89450073 31.22659302 C-28.59800906 31.22699478 -30.30085943 31.12191026 -32 31 C-34 29 -34 29 -34.24291992 26.44970703 C-34.23881104 25.39638184 -34.23470215 24.34305664 -34.23046875 23.2578125 C-34.22853516 22.10925781 -34.22660156 20.96070313 -34.22460938 19.77734375 C-34.21236328 18.57207031 -34.20011719 17.36679688 -34.1875 16.125 C-34.18685547 14.92746094 -34.18621094 13.72992188 -34.18554688 12.49609375 C-34.13654455 2.77185407 -34.13654455 2.77185407 -33 -1 C-28.62218616 -1.19218929 -24.24409441 -1.37092139 -19.86523438 -1.53710938 C-18.37517512 -1.59556854 -16.88525624 -1.65772629 -15.39550781 -1.72363281 C-13.25611936 -1.81764056 -11.11658132 -1.89840682 -8.9765625 -1.9765625 C-7.68830566 -2.02893066 -6.40004883 -2.08129883 -5.07275391 -2.13525391 C-2 -2 -2 -2 0 0 Z " fill="#FDD800" transform="translate(107,187)"/>
<path d="M0 0 C0.495 1.98 0.495 1.98 1 4 C0.34 4 -0.32 4 -1 4 C-0.96970703 4.86278564 -0.93941406 5.72557129 -0.90820312 6.61450195 C-0.79597033 9.81810085 -0.68420416 13.02171559 -0.57275391 16.2253418 C-0.5244383 17.61141604 -0.47593715 18.99748382 -0.42724609 20.38354492 C-0.35725814 22.37677325 -0.28799457 24.37002696 -0.21875 26.36328125 C-0.17685547 27.56251221 -0.13496094 28.76174316 -0.09179688 29.99731445 C-0.03064774 31.9975091 0 33.99887086 0 36 C-0.33 35.34 -0.66 34.68 -1 34 C-5.09362106 34.1181656 -9.18700767 34.24240784 -13.28027344 34.37231445 C-14.6731259 34.41565846 -16.06603131 34.45733396 -17.45898438 34.49731445 C-19.45976651 34.55502932 -21.46035859 34.61921869 -23.4609375 34.68359375 C-24.66540527 34.72025146 -25.86987305 34.75690918 -27.11083984 34.79467773 C-29.93996367 34.81052987 -29.93996367 34.81052987 -32 36 C-32.98600987 31.89162554 -33.13389122 28.03138166 -33.125 23.8125 C-33.12757812 22.58144531 -33.13015625 21.35039062 -33.1328125 20.08203125 C-33 17 -33 17 -32 15 C-32.66 14.67 -33.32 14.34 -34 14 C-33.34 11.69 -32.68 9.38 -32 7 C-32.66 7 -33.32 7 -34 7 C-33.67 5.35 -33.34 3.7 -33 2 C-29.46355121 0.90003613 -26.20888352 0.9001421 -22.51953125 0.9375 C-20.65071289 0.94910156 -20.65071289 0.94910156 -18.74414062 0.9609375 C-17.44669922 0.97382813 -16.14925781 0.98671875 -14.8125 1 C-12.2357178 1.02537452 -9.65888842 1.04645315 -7.08203125 1.0625 C-5.93968018 1.07410156 -4.7973291 1.08570313 -3.62036133 1.09765625 C-1.07348818 1.30024881 -1.07348818 1.30024881 0 0 Z " fill="#FDD700" transform="translate(140,146)"/>
<path d="M0 0 C1.7325 0.5878125 1.7325 0.5878125 3.5 1.1875 C14.91703862 4.97522822 26.21944286 8.51882101 38 11 C38 11.66 38 12.32 38 13 C29.50140996 14.14017161 20.99699815 14.33100899 12.4375 14.5625 C10.93683922 14.60578362 9.43618803 14.6494007 7.93554688 14.69335938 C4.29046701 14.79941797 0.64527818 14.90096257 -3 15 C-2.23997083 16.31878578 -1.46656347 17.6298684 -0.6875 18.9375 C-0.25824219 19.66839844 0.17101562 20.39929688 0.61328125 21.15234375 C1.95110254 23.29977412 1.95110254 23.29977412 5 24 C5.6701364 25.66527458 6.33620576 27.33218723 7 29 C14.56526159 38.07535294 24.00659881 45.64844536 35 50 C35.43957031 50.4640625 35.87914062 50.928125 36.33203125 51.40625 C38.54529832 53.52103446 40.88882632 54.46925381 43.6875 55.6875 C44.68136719 56.12449219 45.67523438 56.56148438 46.69921875 57.01171875 C47.45847656 57.33785156 48.21773437 57.66398437 49 58 C48.34 58.66 47.68 59.32 47 60 C43.70285207 59.67028521 42.3773161 59.3773161 40 57 C39.01 56.67 38.02 56.34 37 56 C35.65210653 55.01971384 34.32086173 54.01641629 33 53 C31.19745837 51.81800549 29.38424757 50.65217322 27.5625 49.5 C26.63566406 48.9121875 25.70882812 48.324375 24.75390625 47.71875 C22.94798218 46.59164845 21.12651503 45.4889987 19.2890625 44.4140625 C16.80703093 42.88079385 15.02065059 41.09032819 13 39 C12.34 38.67 11.68 38.34 11 38 C11 37.34 11 36.68 11 36 C10.34 36 9.68 36 9 36 C9 35.34 9 34.68 9 34 C7.515 33.505 7.515 33.505 6 33 C4.98648336 31.34151823 3.98879205 29.67334039 3 28 C2.13375 27.13375 1.2675 26.2675 0.375 25.375 C-2 23 -2 23 -3 20 C-3.99 19.34 -4.98 18.68 -6 18 C-5.67 17.67 -5.34 17.34 -5 17 C-5.99 16.01 -6.98 15.02 -8 14 C-6 12 -6 12 -3.93701172 11.77294922 C-3.10959473 11.78342285 -2.28217773 11.79389648 -1.4296875 11.8046875 C-0.53378906 11.81113281 0.36210937 11.81757813 1.28515625 11.82421875 C2.69087891 11.84935547 2.69087891 11.84935547 4.125 11.875 C5.06988281 11.88402344 6.01476562 11.89304687 6.98828125 11.90234375 C9.32577292 11.92595478 11.66276123 11.95888484 14 12 C13.39162774 9.52950198 13.39162774 9.52950198 12 7 C9.50003546 5.57148646 9.50003546 5.57148646 6.5625 4.75 C5.59441406 4.43546875 4.62632812 4.1209375 3.62890625 3.796875 C2.76136719 3.53390625 1.89382812 3.2709375 1 3 C0.01 2.67 -0.98 2.34 -2 2 C-1.34 2 -0.68 2 0 2 C0 1.34 0 0.68 0 0 Z M20 9 C20 9.66 20 10.32 20 11 C19.01 11.495 19.01 11.495 18 12 C18.99 12 19.98 12 21 12 C21.33 11.01 21.66 10.02 22 9 C21.34 9 20.68 9 20 9 Z M23 10 C23.33 10.66 23.66 11.32 24 12 C25.65 12 27.3 12 29 12 C26.18490007 9.7226499 26.18490007 9.7226499 23 10 Z " fill="#C7A200" transform="translate(130,270)"/>
<path d="M0 0 C1.94512691 9.74398483 2.08091356 21.31455625 0 31 C-4.52065428 31.049377 -9.04115217 31.08570823 -13.56201172 31.10986328 C-15.10045098 31.11993118 -16.63887107 31.13358646 -18.17724609 31.15087891 C-20.38644133 31.17509317 -22.59538395 31.18647491 -24.8046875 31.1953125 C-25.49432587 31.20563507 -26.18396423 31.21595764 -26.89450073 31.22659302 C-28.59800906 31.22699478 -30.30085943 31.12191026 -32 31 C-34 29 -34 29 -34.24291992 26.44970703 C-34.23881104 25.39638184 -34.23470215 24.34305664 -34.23046875 23.2578125 C-34.22853516 22.10925781 -34.22660156 20.96070313 -34.22460938 19.77734375 C-34.21236328 18.57207031 -34.20011719 17.36679688 -34.1875 16.125 C-34.18685547 14.92746094 -34.18621094 13.72992188 -34.18554688 12.49609375 C-34.13654455 2.77185407 -34.13654455 2.77185407 -33 -1 C-28.62218616 -1.19218929 -24.24409441 -1.37092139 -19.86523438 -1.53710938 C-18.37517512 -1.59556854 -16.88525624 -1.65772629 -15.39550781 -1.72363281 C-13.25611936 -1.81764056 -11.11658132 -1.89840682 -8.9765625 -1.9765625 C-7.68830566 -2.02893066 -6.40004883 -2.08129883 -5.07275391 -2.13525391 C-2 -2 -2 -2 0 0 Z M-30 1 C-30 10.57 -30 20.14 -30 30 C-20.76 29.67 -11.52 29.34 -2 29 C-2 19.76 -2 10.52 -2 1 C-11.24 1 -20.48 1 -30 1 Z " fill="#C69A00" transform="translate(107,187)"/>
<path d="M0 0 C0.495 1.98 0.495 1.98 1 4 C0.34 4 -0.32 4 -1 4 C-0.96970703 4.86278564 -0.93941406 5.72557129 -0.90820312 6.61450195 C-0.79597033 9.81810085 -0.68420416 13.02171559 -0.57275391 16.2253418 C-0.5244383 17.61141604 -0.47593715 18.99748382 -0.42724609 20.38354492 C-0.35725814 22.37677325 -0.28799457 24.37002696 -0.21875 26.36328125 C-0.17685547 27.56251221 -0.13496094 28.76174316 -0.09179688 29.99731445 C-0.03064774 31.9975091 0 33.99887086 0 36 C-0.33 35.34 -0.66 34.68 -1 34 C-5.09362106 34.1181656 -9.18700767 34.24240784 -13.28027344 34.37231445 C-14.6731259 34.41565846 -16.06603131 34.45733396 -17.45898438 34.49731445 C-19.45976651 34.55502932 -21.46035859 34.61921869 -23.4609375 34.68359375 C-24.66540527 34.72025146 -25.86987305 34.75690918 -27.11083984 34.79467773 C-29.93996367 34.81052987 -29.93996367 34.81052987 -32 36 C-32.98600987 31.89162554 -33.13389122 28.03138166 -33.125 23.8125 C-33.12757812 22.58144531 -33.13015625 21.35039062 -33.1328125 20.08203125 C-33 17 -33 17 -32 15 C-32.66 14.67 -33.32 14.34 -34 14 C-33.34 11.69 -32.68 9.38 -32 7 C-32.66 7 -33.32 7 -34 7 C-33.67 5.35 -33.34 3.7 -33 2 C-29.46355121 0.90003613 -26.20888352 0.9001421 -22.51953125 0.9375 C-20.65071289 0.94910156 -20.65071289 0.94910156 -18.74414062 0.9609375 C-17.44669922 0.97382813 -16.14925781 0.98671875 -14.8125 1 C-12.2357178 1.02537452 -9.65888842 1.04645315 -7.08203125 1.0625 C-5.93968018 1.07410156 -4.7973291 1.08570313 -3.62036133 1.09765625 C-1.07348818 1.30024881 -1.07348818 1.30024881 0 0 Z M-30 3 C-30 12.9 -30 22.8 -30 33 C-20.76 33 -11.52 33 -2 33 C-2 23.1 -2 13.2 -2 3 C-11.24 3 -20.48 3 -30 3 Z " fill="#CEA400" transform="translate(140,146)"/>
<path d="M0 0 C0 0.99 0 1.98 0 3 C-1.33837891 4.20751953 -1.33837891 4.20751953 -3.2265625 5.3828125 C-3.92080322 5.82270508 -4.61504395 6.26259766 -5.33032227 6.71582031 C-6.08756592 7.18084961 -6.84480957 7.64587891 -7.625 8.125 C-9.20964451 9.12238138 -10.79427982 10.11977738 -12.37890625 11.1171875 C-13.1692627 11.60928711 -13.95961914 12.10138672 -14.77392578 12.60839844 C-17.72671059 14.45429374 -20.64304249 16.35181131 -23.5625 18.25 C-32.93753959 24.28900817 -42.41734725 30.16379838 -51.88427734 36.05712891 C-54.97464734 37.98419084 -58.05996589 39.91913247 -61.14453125 41.85546875 C-63.05457258 43.049663 -64.96472389 44.24368135 -66.875 45.4375 C-67.76646729 45.99920898 -68.65793457 46.56091797 -69.57641602 47.13964844 C-70.39424561 47.64915039 -71.2120752 48.15865234 -72.0546875 48.68359375 C-72.77124512 49.13275146 -73.48780273 49.58190918 -74.22607422 50.04467773 C-76 51 -76 51 -78 51 C-77.67 51.99 -77.34 52.98 -77 54 C-78.32 53.67 -79.64 53.34 -81 53 C-81 52.34 -81 51.68 -81 51 C-78.25755801 48.63757306 -75.25661138 46.98880808 -72.0625 45.3125 C-67.57905558 42.89507524 -63.1716679 40.38302624 -58.8125 37.75 C-57.70519531 37.08484375 -56.59789062 36.4196875 -55.45703125 35.734375 C-54.64621094 35.16203125 -53.83539063 34.5896875 -53 34 C-53 33.34 -53 32.68 -53 32 C-52.278125 31.9175 -51.55625 31.835 -50.8125 31.75 C-47.41750362 30.84466763 -45.63347166 29.28696223 -43 27 C-39.28646566 24.52431044 -35.62375318 22.22651276 -31.6875 20.125 C-27.63187263 17.93044301 -23.77103445 15.6499161 -20 13 C-20.495 12.01 -20.495 12.01 -21 11 C-19.68 10.67 -18.36 10.34 -17 10 C-17 9.34 -17 8.68 -17 8 C-16.319375 8.103125 -15.63875 8.20625 -14.9375 8.3125 C-11.23816123 7.91895332 -9.53331152 6.47013568 -6.64453125 4.2421875 C-4.86114626 2.8951176 -3.02579351 1.93498162 -1 1 C-0.67 0.67 -0.34 0.34 0 0 Z " fill="#846C01" transform="translate(164,369)"/>
<path d="M0 0 C3.81552617 1.49895671 5.53745046 3.7986856 8 7 C8.66 7.33 9.32 7.66 10 8 C10.27972656 8.74636719 10.55945313 9.49273437 10.84765625 10.26171875 C14.85792384 19.79120206 27.58565271 28.96748237 37 32.8125 C37.99 33.204375 38.98 33.59625 40 34 C40.43957031 34.4640625 40.87914062 34.928125 41.33203125 35.40625 C43.54529832 37.52103446 45.88882632 38.46925381 48.6875 39.6875 C49.68136719 40.12449219 50.67523438 40.56148438 51.69921875 41.01171875 C52.45847656 41.33785156 53.21773437 41.66398437 54 42 C53.34 42.66 52.68 43.32 52 44 C48.70285207 43.67028521 47.3773161 43.3773161 45 41 C44.01 40.67 43.02 40.34 42 40 C40.65210653 39.01971384 39.32086173 38.01641629 38 37 C36.19745837 35.81800549 34.38424757 34.65217322 32.5625 33.5 C31.63566406 32.9121875 30.70882812 32.324375 29.75390625 31.71875 C27.94798218 30.59164845 26.12651503 29.4889987 24.2890625 28.4140625 C21.80703093 26.88079385 20.02065059 25.09032819 18 23 C17.34 22.67 16.68 22.34 16 22 C16 21.34 16 20.68 16 20 C15.34 20 14.68 20 14 20 C14 19.34 14 18.68 14 18 C13.01 17.67 12.02 17.34 11 17 C9.98648336 15.34151823 8.98879205 13.67334039 8 12 C7.13375 11.13375 6.2675 10.2675 5.375 9.375 C3 7 3 7 2 4 C1.01 3.34 0.02 2.68 -1 2 C-0.67 1.34 -0.34 0.68 0 0 Z " fill="#B49601" transform="translate(125,286)"/>
<path d="M0 0 C2.05127844 3.07691766 2.27260872 3.93644999 2.4140625 7.44921875 C2.45273437 8.29677734 2.49140625 9.14433594 2.53125 10.01757812 C2.5621875 10.89865234 2.593125 11.77972656 2.625 12.6875 C2.66367187 13.58017578 2.70234375 14.47285156 2.7421875 15.39257812 C2.83640218 17.5948462 2.92201588 19.79710722 3 22 C4.20849609 22.43119141 4.20849609 22.43119141 5.44140625 22.87109375 C8 24 8 24 8.9375 26.0625 C9.0494443 31.32388205 8.45232592 36.27536297 5 40.375 C4.34 40.91125 3.68 41.4475 3 42 C2.34 42.99 1.68 43.98 1 45 C0.34 44.67 -0.32 44.34 -1 44 C-1 41.69 -1 39.38 -1 37 C-0.01 37 0.98 37 2 37 C2.495 34.03 2.495 34.03 3 31 C2.34 31 1.68 31 1 31 C-0.98 35.95 -2.96 40.9 -5 46 C-6.47418024 41.57745927 -4.48389416 38.16853057 -2.9140625 33.9765625 C0.02734025 25.75400482 0.14981536 17.59515355 0.0625 8.9375 C0.05798828 8.07189453 0.05347656 7.20628906 0.04882812 6.31445312 C0.03719913 4.20960461 0.01927073 2.10479242 0 0 Z M4 25 C3.34 25.66 2.68 26.32 2 27 C2 27.99 2 28.98 2 30 C2.66 30 3.32 30 4 30 C4.33 30.66 4.66 31.32 5 32 C6.33332095 29.3333581 5.67102033 27.83319697 5 25 C4.67 25 4.34 25 4 25 Z M6 26 C7 28 7 28 7 28 Z " fill="#D0AD00" transform="translate(294,275)"/>
<path d="M0 0 C2.33528415 0.17298401 3.69177582 0.70225369 5.37890625 2.33203125 C9 6.57211538 9 6.57211538 9 9 C9.60972656 9.09925781 10.21945312 9.19851562 10.84765625 9.30078125 C14.17005421 10.38010836 14.98905245 12.41633786 16.69140625 15.34375 C23.28326043 28.72423014 23.28326043 28.72423014 22.7578125 34.80078125 C22 37 22 37 20 39 C20 38.01 20 37.02 20 36 C18.515 35.505 18.515 35.505 17 35 C18.32 35 19.64 35 21 35 C20.38125 34.319375 19.7625 33.63875 19.125 32.9375 C16.33471674 29.08034373 15.49388435 25.28421511 14.5 20.6875 C14.07349935 18.75543811 14.07349935 18.75543811 12 17 C11.33333333 15.66666667 10.66666667 14.33333333 10 13 C8.47902398 11.47902398 6.93260977 9.98343787 5.375 8.5 C3 6 3 6 3 4 C2.34 3.67 1.68 3.34 1 3 C0.67 2.01 0.34 1.02 0 0 Z " fill="#C9AA00" transform="translate(280,233)"/>
<path d="M0 0 C15.07688366 -0.59864097 30.22685872 0.92605978 45 4 C45 4.33 45 4.66 45 5 C35.18005469 4.36213134 25.41059322 3.47883859 15.625 2.4375 C14.29168895 2.29731391 12.95835567 2.15733911 11.625 2.01757812 C8.41644339 1.68044718 5.20812299 1.34122821 2 1 C2.00523682 1.65895264 2.01047363 2.31790527 2.01586914 2.99682617 C2.18272378 27.1865254 2.18272378 27.1865254 1 38 C0.67 38 0.34 38 0 38 C-0.85582352 30.14747806 -1.15439012 22.39614539 -1.125 14.5 C-1.12886719 13.43007812 -1.13273438 12.36015625 -1.13671875 11.2578125 C-1.13542969 10.23429688 -1.13414062 9.21078125 -1.1328125 8.15625 C-1.13112061 6.77663086 -1.13112061 6.77663086 -1.12939453 5.36914062 C-1 3 -1 3 0 0 Z " fill="#907600" transform="translate(138,192)"/>
<path d="M0 0 C5.20022978 5.20022978 3.11847699 17.75047662 3.1328125 24.6171875 C3 28 3 28 2 33 C-11.86 32.505 -11.86 32.505 -26 32 C-26 31.67 -26 31.34 -26 31 C-17.42 31 -8.84 31 0 31 C0 21.76 0 12.52 0 3 C-5.94 3 -11.88 3 -18 3 C-18 2.67 -18 2.34 -18 2 C-12.06 2 -6.12 2 0 2 C0 1.34 0 0.68 0 0 Z " fill="#D4A501" transform="translate(105,185)"/>
<path d="M0 0 C1.35416667 0.27083333 2.70833333 0.54166667 4.0625 0.8125 C5.42761719 1.08320313 5.42761719 1.08320313 6.8203125 1.359375 C9.08834679 1.8163254 11.35372666 2.28653394 13.6171875 2.765625 C14.87789062 3.02859375 16.13859375 3.2915625 17.4375 3.5625 C19.19900391 3.93568359 19.19900391 3.93568359 20.99609375 4.31640625 C29.98076891 5.98579748 39.07404608 6.18172102 48.1875 6.1875 C49.21552734 6.19974609 50.24355469 6.21199219 51.30273438 6.22460938 C55.84324075 6.23332436 60.02675261 6.15455058 64.42578125 4.96484375 C67.71451098 4.07706643 69.69306272 3.85829105 73 4.375 C73.763125 4.48585938 74.52625 4.59671875 75.3125 4.7109375 C75.869375 4.80632812 76.42625 4.90171875 77 5 C77 5.33 77 5.66 77 6 C67.5065321 7.7653849 58.33331861 8.31782356 48.6875 8.25 C47.66793716 8.2463443 47.66793716 8.2463443 46.6277771 8.24261475 C36.60250256 8.20047131 26.88164561 7.7417289 17 6 C15.84242188 5.82082031 14.68484375 5.64164062 13.4921875 5.45703125 C5.69253356 4.23084452 5.69253356 4.23084452 2 3 C1.34 2.01 0.68 1.02 0 0 Z " fill="#B89000" transform="translate(217,397)"/>
<path d="M0 0 C3.16792639 1.17348493 5.67423575 2.52720468 8 5 C8.5 7.8125 8.5 7.8125 8 10 C7.34 10 6.68 10 6 10 C5.34 8.35 4.68 6.7 4 5 C-4.02297123 3.90683105 -4.02297123 3.90683105 -12 5 C-12.33 5.66 -12.66 6.32 -13 7 C-13.66 6.34 -14.32 5.68 -15 5 C-17.20536179 9.0271824 -18.45660208 12.43545749 -19 17 C-19.33 17 -19.66 17 -20 17 C-20.42034404 10.90501137 -20.07814737 7.87112047 -16 3 C-11.29580944 -1.32249089 -6.05860742 -0.82687627 0 0 Z " fill="#D5A801" transform="translate(361,164)"/>
<path d="M0 0 C2.59296276 4.27728045 2.97657473 9.12177922 3.6796875 13.98046875 C4.89719942 21.32704637 8.17434167 25.43394347 14 30 C14.33 30.99 14.66 31.98 15 33 C10.34474166 31.76772573 8.23609079 29.27291518 5.33203125 25.65625 C3.95505086 23.88314171 3.95505086 23.88314171 2 22 C0.8125 18.5 0.8125 18.5 0 15 C0.33 14.34 0.66 13.68 1 13 C0.01 12.67 -0.98 12.34 -2 12 C-2 9.36 -2 6.72 -2 4 C-1.34 4 -0.68 4 0 4 C0 2.68 0 1.36 0 0 Z " fill="#948000" transform="translate(257,192)"/>
<path d="M0 0 C12.87 0.495 12.87 0.495 26 1 C26 1.33 26 1.66 26 2 C17.75 2 9.5 2 1 2 C1 11.57 1 21.14 1 31 C0.34 31.33 -0.32 31.66 -1 32 C-2.04947813 26.81977595 -2.18338676 21.82333941 -2.1875 16.5625 C-2.19974609 15.74201172 -2.21199219 14.92152344 -2.22460938 14.07617188 C-2.22654297 13.26857422 -2.22847656 12.46097656 -2.23046875 11.62890625 C-2.23457764 10.90775635 -2.23868652 10.18660645 -2.24291992 9.44360352 C-2 7 -2 7 0 0 Z " fill="#6D5400" transform="translate(75,114)"/>
<path d="M0 0 C0 0.99 0 1.98 0 3 C-16 11 -16 11 -18.11425781 11.99658203 C-20.52945051 13.2817247 -22.10407727 15.04291847 -24 17 C-27.30341823 19.20227882 -30.18443389 19.97797336 -34 21 C-34.99 21.33 -35.98 21.66 -37 22 C-37 21.34 -37 20.68 -37 20 C-36.37351563 19.66226562 -35.74703125 19.32453125 -35.1015625 18.9765625 C-34.28429687 18.53054688 -33.46703125 18.08453125 -32.625 17.625 C-31.81289062 17.18414062 -31.00078125 16.74328125 -30.1640625 16.2890625 C-27.89185698 15.0556107 -27.89185698 15.0556107 -26 13 C-23.51435045 11.68458032 -21.0259368 10.42050747 -18.5 9.1875 C-17.78328125 8.83365234 -17.0665625 8.47980469 -16.328125 8.11523438 C-14.89005561 7.40525228 -13.45126206 6.69673492 -12.01171875 5.98974609 C-9.33468855 4.67267323 -6.66696556 3.33731463 -4 2 C-2.66666667 1.33333333 -1.33333333 0.66666667 0 0 Z " fill="#947601" transform="translate(212,342)"/>
<path d="M0 0 C0.33 0 0.66 0 1 0 C1.495 7.92 1.495 7.92 2 16 C-2.02005569 16.28678104 -6.04017225 16.57225959 -10.06054688 16.85449219 C-11.42616008 16.95074402 -12.79172124 17.04773737 -14.15722656 17.14550781 C-16.12811416 17.28649101 -18.09921216 17.42452298 -20.0703125 17.5625 C-21.25383301 17.64628906 -22.43735352 17.73007813 -23.65673828 17.81640625 C-26.7798138 17.98790857 -29.87308068 18.03330939 -33 18 C-33 17.34 -33 16.68 -33 16 C-32.13197754 15.94465088 -31.26395508 15.88930176 -30.36962891 15.83227539 C-27.15275935 15.62510399 -23.93617213 15.41408491 -20.71972656 15.20043945 C-19.32692398 15.10872227 -17.93401914 15.01854468 -16.54101562 14.92993164 C-14.5401029 14.80238058 -12.53957392 14.6688538 -10.5390625 14.53515625 C-9.33459473 14.456604 -8.13012695 14.37805176 -6.88916016 14.29711914 C-4.06223927 14.17835616 -4.06223927 14.17835616 -2 13 C-2 11.35 -2 9.7 -2 8 C-1.67 8 -1.34 8 -1 8 C-0.67 5.36 -0.34 2.72 0 0 Z " fill="#C99C00" transform="translate(139,217)"/>
<path d="M0 0 C2.0625 0.1875 2.0625 0.1875 4 1 C5.46733191 5.40199572 5.99896183 7.48770824 5 12 C4.86081463 13.69157394 4.7564164 15.38630373 4.68359375 17.08203125 C4.64169922 18.01337891 4.59980469 18.94472656 4.55664062 19.90429688 C4.51732422 20.86400391 4.47800781 21.82371094 4.4375 22.8125 C4.37272461 24.28106445 4.37272461 24.28106445 4.30664062 25.77929688 C4.2009774 28.18607027 4.09887673 30.59293983 4 33 C3.34 32.67 2.68 32.34 2 32 C2 22.43 2 12.86 2 3 C0.68 2.67 -0.64 2.34 -2 2 C-1.34 1.34 -0.68 0.68 0 0 Z " fill="#C09701" transform="translate(103,113)"/>
<path d="M0 0 C0.66 0.33 1.32 0.66 2 1 C1.24976563 1.4125 0.49953125 1.825 -0.2734375 2.25 C-11.31694415 8.48109695 -20.24294041 15.86219869 -29 25 C-29.66 24.67 -30.32 24.34 -31 24 C-26.52789091 16.90500836 -20.87379851 12.66579056 -14 8 C-12.68496451 7.04514886 -11.37202814 6.08739029 -10.0625 5.125 C-6.70789636 2.79731584 -3.85111298 1.28370433 0 0 Z " fill="#927602" transform="translate(304,129)"/>
<path d="M0 0 C3.81552617 1.49895671 5.53745046 3.7986856 8 7 C8.66 7.33 9.32 7.66 10 8 C10.28617188 8.75667969 10.57234375 9.51335937 10.8671875 10.29296875 C12.16329993 13.39023053 13.70479469 15.0094014 16.125 17.3125 C16.84945312 18.00988281 17.57390625 18.70726562 18.3203125 19.42578125 C18.87460938 19.94527344 19.42890625 20.46476562 20 21 C19.34 21.66 18.68 22.32 18 23 C17.34 22.67 16.68 22.34 16 22 C16 21.34 16 20.68 16 20 C15.34 20 14.68 20 14 20 C14 19.34 14 18.68 14 18 C13.01 17.67 12.02 17.34 11 17 C9.98648336 15.34151823 8.98879205 13.67334039 8 12 C7.13375 11.13375 6.2675 10.2675 5.375 9.375 C3 7 3 7 2 4 C1.01 3.34 0.02 2.68 -1 2 C-0.67 1.34 -0.34 0.68 0 0 Z " fill="#8C7200" transform="translate(125,286)"/>
<path d="M0 0 C0 0.99 0 1.98 0 3 C-1.40185547 4.25512695 -1.40185547 4.25512695 -3.3671875 5.48828125 C-4.08398682 5.94485107 -4.80078613 6.4014209 -5.53930664 6.87182617 C-6.31008545 7.34724854 -7.08086426 7.8226709 -7.875 8.3125 C-8.6477124 8.80016846 -9.4204248 9.28783691 -10.21655273 9.7902832 C-15.76031859 13.27564839 -21.34093784 16.70467388 -27 20 C-25.3327868 16.22929351 -23.66521894 14.9290626 -20 13 C-20.33 12.34 -20.66 11.68 -21 11 C-19.68 10.67 -18.36 10.34 -17 10 C-17 9.34 -17 8.68 -17 8 C-16.319375 8.103125 -15.63875 8.20625 -14.9375 8.3125 C-11.23816123 7.91895332 -9.53331152 6.47013568 -6.64453125 4.2421875 C-4.86114626 2.8951176 -3.02579351 1.93498162 -1 1 C-0.67 0.67 -0.34 0.34 0 0 Z " fill="#987D01" transform="translate(164,369)"/>
<path d="M0 0 C0.6875 1.75 0.6875 1.75 1 4 C-0.3125 6.25 -0.3125 6.25 -2 8 C-2.66 8 -3.32 8 -4 8 C-4.33 8.99 -4.66 9.98 -5 11 C-6.7421875 12.5703125 -6.7421875 12.5703125 -8.875 14.125 C-9.57367188 14.64320313 -10.27234375 15.16140625 -10.9921875 15.6953125 C-13 17 -13 17 -16 18 C-11.69230769 8.66666667 -11.69230769 8.66666667 -7.9375 7.1875 C-7.298125 7.125625 -6.65875 7.06375 -6 7 C-5.01 6.67 -4.02 6.34 -3 6 C-3 5.01 -3 4.02 -3 3 C-1.5 1.3125 -1.5 1.3125 0 0 Z " fill="#9B7901" transform="translate(291,321)"/>
<path d="M0 0 C0.598125 0.763125 1.19625 1.52625 1.8125 2.3125 C3.84004112 4.91335259 3.84004112 4.91335259 5.75 6.6875 C7 8 7 8 7 10 C7.66 10 8.32 10 9 10 C10.66666667 11.66666667 12.33333333 13.33333333 14 15 C15.63377642 16.05287814 17.29181597 17.0727001 19 18 C18.67 18.99 18.34 19.98 18 21 C17.01 20.34 16.02 19.68 15 19 C14.01 18.67 13.02 18.34 12 18 C12 17.34 12 16.68 12 16 C9.49742457 14.19687397 6.89941571 12.58542896 4.28515625 10.94921875 C1.61805842 8.6742071 1.27737048 7.42877123 1 4 C0.34 4 -0.32 4 -1 4 C-0.67 2.68 -0.34 1.36 0 0 Z " fill="#AE8D00" transform="translate(109,250)"/>
<path d="M0 0 C8.03189893 -0.41544305 15.20204234 1.18236011 23 3 C23.92683594 3.165 24.85367187 3.33 25.80859375 3.5 C28.37802466 4.08625161 29.34448284 4.99595292 31 7 C31.66 6.67 32.32 6.34 33 6 C33.495 7.485 33.495 7.485 34 9 C35.49985609 10.66710346 35.49985609 10.66710346 37 12 C34.24851753 10.91906046 31.53233081 9.79323493 28.828125 8.59765625 C19.33826951 4.52613528 10.21036122 2.42470157 0 1 C0 0.67 0 0.34 0 0 Z " fill="#BE9302" transform="translate(407,165)"/>
<path d="M0 0 C-6.38564274 2.87979967 -6.38564274 2.87979967 -9.875 3.5625 C-10.926875 3.7790625 -10.926875 3.7790625 -12 4 C-12.33 4.66 -12.66 5.32 -13 6 C-13.51208008 5.83701416 -14.02416016 5.67402832 -14.55175781 5.50610352 C-17.79373094 4.835919 -20.86137063 4.88877611 -24.171875 4.90234375 C-25.1955014 4.90446617 -25.1955014 4.90446617 -26.23980713 4.90663147 C-28.40991684 4.91220916 -30.5799217 4.92475746 -32.75 4.9375 C-34.22525892 4.94251789 -35.70051947 4.94708029 -37.17578125 4.95117188 C-40.78388798 4.96217125 -44.39193375 4.97942047 -48 5 C-48 4.67 -48 4.34 -48 4 C-47.20529297 3.9906543 -46.41058594 3.98130859 -45.59179688 3.97167969 C-25.42125837 3.80858495 -25.42125837 3.80858495 -5.7734375 -0.2578125 C-3 -1 -3 -1 0 0 Z " fill="#B18E01" transform="translate(172,431)"/>
<path d="M0 0 C0.66 0.66 1.32 1.32 2 2 C1.8984375 4.6796875 1.8984375 4.6796875 1.375 7.875 C1.21773438 8.92429687 1.06046875 9.97359375 0.8984375 11.0546875 C-0.1291471 14.42337789 -1.39759341 15.6967206 -4 18 C-4.66 18.99 -5.32 19.98 -6 21 C-6.66 20.67 -7.32 20.34 -8 20 C-8 17.69 -8 15.38 -8 13 C-7.01 13 -6.02 13 -5 13 C-4.35004703 11.58521865 -3.70521278 10.16808513 -3.0625 8.75 C-2.70285156 7.96109375 -2.34320313 7.1721875 -1.97265625 6.359375 C-1.09966721 4.24176302 -0.48661492 2.23330638 0 0 Z " fill="#8C7501" transform="translate(301,299)"/>
<path d="M0 0 C1.44812002 3.82783317 0.48874808 6.27830504 -0.8125 10.0625 C-2.75295289 15.99800295 -4.06073245 21.83296699 -5 28 C-7 26 -7 26 -7.5 22.3125 C-7.38611485 14.56830978 -3.40948637 6.81897274 0 0 Z " fill="#624C00" transform="translate(265,165)"/>
<path d="M0 0 C0.66 0 1.32 0 2 0 C2 10.23 2 20.46 2 31 C0 29 0 29 -0.23046875 25.8125 C-0.21628906 24.554375 -0.20210938 23.29625 -0.1875 22 C-0.18105469 20.741875 -0.17460938 19.48375 -0.16796875 18.1875 C0 15 0 15 1 13 C0.34 12.67 -0.32 12.34 -1 12 C-0.34 9.69 0.32 7.38 1 5 C0.34 5 -0.32 5 -1 5 C-0.67 3.35 -0.34 1.7 0 0 Z " fill="#745D00" transform="translate(107,148)"/>
<path d="M0 0 C6.75 3.75 6.75 3.75 9 6 C9 6.99 9 7.98 9 9 C7.83082031 9.26554688 6.66164063 9.53109375 5.45703125 9.8046875 C3.90880583 10.16124851 2.36063141 10.51803102 0.8125 10.875 C0.04357422 11.04902344 -0.72535156 11.22304687 -1.51757812 11.40234375 C-6.26247239 12.50201881 -10.62598786 13.81299393 -15 16 C-15.66 15.34 -16.32 14.68 -17 14 C-9.44509488 11.07024349 -1.89520997 8.81879183 6 7 C3.28395285 4.12579877 3.28395285 4.12579877 0 2 C0 1.34 0 0.68 0 0 Z " fill="#BC9808" transform="translate(444,177)"/>
<path d="M0 0 C1.51830386 0.04233866 3.0364555 0.09036263 4.55444336 0.14282227 C5.75090736 0.17823875 5.75090736 0.17823875 6.97154236 0.21437073 C9.52929684 0.29119112 12.08676238 0.37513567 14.64428711 0.45922852 C16.37409049 0.51243084 18.10390814 0.56517135 19.83374023 0.61743164 C24.08327355 0.74683094 28.33256093 0.88262164 32.58178711 1.02172852 C32.58178711 1.35172852 32.58178711 1.68172852 32.58178711 2.02172852 C31.63335937 2.04678467 30.68493164 2.07184082 29.70776367 2.09765625 C26.18160679 2.19291692 22.65560752 2.29214292 19.12963867 2.39404297 C17.60494325 2.43729559 16.08020242 2.47897736 14.55541992 2.51904297 C12.36094489 2.57698054 10.16669643 2.64060647 7.97241211 2.70532227 C6.95343842 2.73039101 6.95343842 2.73039101 5.91387939 2.75596619 C2.67640159 2.85680324 -0.31590893 3.05312028 -3.41821289 4.02172852 C-3.74821289 3.03172852 -4.07821289 2.04172852 -4.41821289 1.02172852 C-3.41821289 0.02172852 -3.41821289 0.02172852 0 0 Z " fill="#A57A03" transform="translate(126.418212890625,281.978271484375)"/>
<path d="M0 0 C8.71782637 -0.16311941 17.31238511 0.34344611 26 1 C25 3 25 3 23.15234375 3.6328125 C22.42144531 3.79523438 21.69054687 3.95765625 20.9375 4.125 C20.20402344 4.29257812 19.47054687 4.46015625 18.71484375 4.6328125 C18.14894531 4.75398438 17.58304688 4.87515625 17 5 C17 4.34 17 3.68 17 3 C13.37 2.67 9.74 2.34 6 2 C5.67 3.32 5.34 4.64 5 6 C4.87625 5.071875 4.87625 5.071875 4.75 4.125 C4.19884128 1.81418662 4.19884128 1.81418662 1.953125 0.8671875 C1.30859375 0.58101563 0.6640625 0.29484375 0 0 Z " fill="#BE8D00" transform="translate(204,335)"/>
<path d="M0 0 C12.21 0 24.42 0 37 0 C37 0.33 37 0.66 37 1 C36.17798096 1.02505615 35.35596191 1.0501123 34.5090332 1.07592773 C30.77670626 1.19212655 27.04461683 1.31474505 23.3125 1.4375 C22.01892578 1.47681641 20.72535156 1.51613281 19.39257812 1.55664062 C18.14541016 1.59853516 16.89824219 1.64042969 15.61328125 1.68359375 C13.89298706 1.73858032 13.89298706 1.73858032 12.13793945 1.79467773 C9.32549062 1.97870243 6.75038729 2.41921505 4 3 C3.01 3 2.02 3 1 3 C0.67 2.01 0.34 1.02 0 0 Z " fill="#FCE800" transform="translate(126,284)"/>
<path d="M0 0 C0.66 0.33 1.32 0.66 2 1 C-12.62824207 13 -12.62824207 13 -18 13 C-18 12.01 -18 11.02 -18 10 C-16.3603125 9.62875 -16.3603125 9.62875 -14.6875 9.25 C-10.6472068 7.88040909 -10.3572271 7.24118727 -8 4 C-5.69855891 2.92863949 -3.3659787 1.92010283 -1 1 C-0.67 0.67 -0.34 0.34 0 0 Z " fill="#C5A500" transform="translate(198,413)"/>
<path d="M0 0 C1.98 0 3.96 0 6 0 C6 0.66 6 1.32 6 2 C1.86221494 5.22949078 -1.93175255 6.75684496 -7 8 C-7.99 8.33 -8.98 8.66 -10 9 C-10 8.34 -10 7.68 -10 7 C-9.36191406 6.66226562 -8.72382813 6.32453125 -8.06640625 5.9765625 C-7.24011719 5.53054688 -6.41382813 5.08453125 -5.5625 4.625 C-4.73878906 4.18414062 -3.91507813 3.74328125 -3.06640625 3.2890625 C-0.86533422 2.16581441 -0.86533422 2.16581441 0 0 Z " fill="#BB9C01" transform="translate(185,355)"/>
<path d="M0 0 C1.32 0.33 2.64 0.66 4 1 C4.12375 2.010625 4.2475 3.02125 4.375 4.0625 C4.98085335 7.87937612 5.87193912 11.31500112 7 15 C4.525 14.01 4.525 14.01 2 13 C1.7834375 11.453125 1.7834375 11.453125 1.5625 9.875 C1.08339543 6.57450187 0.56124917 3.28731659 0 0 Z " fill="#866501" transform="translate(101,234)"/>
<path d="M0 0 C3.50454574 6.01175041 2.38670401 13.41315598 1 20 C0.34 19.67 -0.32 19.34 -1 19 C-1.02683987 16.02077407 -1.04676037 13.04178705 -1.0625 10.0625 C-1.07087891 9.21236328 -1.07925781 8.36222656 -1.08789062 7.48632812 C-1.09111328 6.67744141 -1.09433594 5.86855469 -1.09765625 5.03515625 C-1.10289307 4.2862915 -1.10812988 3.53742676 -1.11352539 2.76586914 C-1 1 -1 1 0 0 Z " fill="#685B00" transform="translate(74,197)"/>
<path d="M0 0 C0.37125 0.515625 0.7425 1.03125 1.125 1.5625 C4.49139205 5.93880967 8.05333595 10.13555812 12 14 C7.40010167 14 5.20768516 11.07150985 2 8 C0 5.875 0 5.875 -1 4 C-0.6875 1.75 -0.6875 1.75 0 0 Z " fill="#886800" transform="translate(260,210)"/>
<path d="M0 0 C0.33 1.32 0.66 2.64 1 4 C0.34 4 -0.32 4 -1 4 C-1 12.91 -1 21.82 -1 31 C-1.33 31 -1.66 31 -2 31 C-2 21.76 -2 12.52 -2 3 C-2.99 2.67 -3.98 2.34 -5 2 C-3.35 1.34 -1.7 0.68 0 0 Z " fill="#B58801" transform="translate(140,146)"/>
<path d="M0 0 C1.32829008 3.98487023 0.27657189 5.57281656 -1.25 9.4375 C-1.68828125 10.57058594 -2.1265625 11.70367187 -2.578125 12.87109375 C-3.82208902 15.60849809 -5.08329644 17.70559309 -7 20 C-6.67702486 18.33129513 -6.33986667 16.66534667 -6 15 C-5.85433594 14.24074219 -5.70867187 13.48148437 -5.55859375 12.69921875 C-5.31302734 11.48685547 -5.31302734 11.48685547 -5.0625 10.25 C-4.90910156 9.47140625 -4.75570313 8.6928125 -4.59765625 7.890625 C-4.40042969 7.26671875 -4.20320313 6.6428125 -4 6 C-3.34 5.67 -2.68 5.34 -2 5 C-1.27840576 3.35636866 -0.60648579 1.68949614 0 0 Z " fill="#C4A403" transform="translate(396,309)"/>
<path d="M0 0 C1.875 0.1875 1.875 0.1875 4 1 C5.62746006 3.78993153 6.04981458 5.46449328 5.75 8.6875 C5 11 5 11 3 13 C3 12.01 3 11.02 3 10 C2.01 9.67 1.02 9.34 0 9 C1.32 9 2.64 9 4 9 C3.34 8.2575 2.68 7.515 2 6.75 C0 4 0 4 0 0 Z " fill="#BB9D01" transform="translate(297,259)"/>
<path d="M0 0 C2.42130331 3.63195496 2.21022785 5.38349348 2.125 9.6875 C2.10695313 10.86699219 2.08890625 12.04648437 2.0703125 13.26171875 C2.03550781 14.61716797 2.03550781 14.61716797 2 16 C1.34 16 0.68 16 0 16 C-1.08489672 12.74530985 -1.13323992 10.29456791 -1.125 6.875 C-1.12757813 5.79992187 -1.13015625 4.72484375 -1.1328125 3.6171875 C-1 1 -1 1 0 0 Z " fill="#7F6401" transform="translate(303,270)"/>
<path d="M0 0 C2.0625 0.1875 2.0625 0.1875 4 1 C4.66666667 3 5.33333333 5 6 7 C4.0625 9.6875 4.0625 9.6875 2 12 C2 9.03 2 6.06 2 3 C0.68 2.67 -0.64 2.34 -2 2 C-1.34 1.34 -0.68 0.68 0 0 Z " fill="#AB8D00" transform="translate(103,113)"/>
<path d="M0 0 C4.13822218 1.62996896 8.22768778 3.36655355 12.3125 5.125 C13.28026367 5.54072266 13.28026367 5.54072266 14.26757812 5.96484375 C15.84529005 6.64267554 17.42267826 7.32126074 19 8 C15.61915982 9.15782198 13.70336781 8.83835147 10.375 7.625 C9.59898437 7.34914063 8.82296875 7.07328125 8.0234375 6.7890625 C6 6 6 6 4 5 C4 4.34 4 3.68 4 3 C2.68 2.34 1.36 1.68 0 1 C0 0.67 0 0.34 0 0 Z " fill="#F7E100" transform="translate(124,265)"/>
<path d="M0 0 C1.32 0 2.64 0 4 0 C4 0.66 4 1.32 4 2 C2.21895282 3.60178593 0.37462722 5.13381926 -1.5 6.625 C-3.03140625 7.85089844 -3.03140625 7.85089844 -4.59375 9.1015625 C-5.3878125 9.72804688 -6.181875 10.35453125 -7 11 C-7.66 10.67 -8.32 10.34 -9 10 C-7.75 7.5625 -7.75 7.5625 -6 5 C-4.67405895 4.63837971 -3.34061543 4.30271961 -2 4 C-0.71563266 2.0162233 -0.71563266 2.0162233 0 0 Z " fill="#C9A300" transform="translate(209,402)"/>
<path d="M0 0 C0.99 0.33 1.98 0.66 3 1 C3 2.32 3 3.64 3 5 C3.99 5.33 4.98 5.66 6 6 C6.33 7.65 6.66 9.3 7 11 C4.5625 10.375 4.5625 10.375 2 9 C1.3125 6 1.3125 6 1 3 C0.34 2.34 -0.32 1.68 -1 1 C-0.67 0.67 -0.34 0.34 0 0 Z " fill="#8B7000" transform="translate(293,249)"/>
<path d="M0 0 C0.33 0 0.66 0 1 0 C1 5.61 1 11.22 1 17 C0.67 17 0.34 17 0 17 C-0.33951619 15.43883181 -0.67132544 13.87598662 -1 12.3125 C-1.185625 11.44238281 -1.37125 10.57226562 -1.5625 9.67578125 C-1.99575896 7.02593851 -2.21890003 4.67696494 -2 2 C-1.34 1.34 -0.68 0.68 0 0 Z " fill="#F0D000" transform="translate(260,189)"/>
<path d="M0 0 C2.9719385 1.12451727 5.33440687 2.22293791 8 4 C8.1875 6.625 8.1875 6.625 8 9 C7.34 9 6.68 9 6 9 C5.34 7.35 4.68 5.7 4 4 C3.01 4 2.02 4 1 4 C0.67 2.68 0.34 1.36 0 0 Z " fill="#9E7F00" transform="translate(361,165)"/>
<path d="M0 0 C3.25597758 0.24118352 4.7276304 1.52224212 6.8125 3.875 C7.534375 4.90625 8.25625 5.9375 9 7 C8.67 7.99 8.34 8.98 8 10 C6.2925002 8.71937515 4.62626404 7.38232443 3 6 C3 5.34 3 4.68 3 4 C2.34 3.67 1.68 3.34 1 3 C0.67 2.01 0.34 1.02 0 0 Z " fill="#9B7D00" transform="translate(280,233)"/>
<path d="M0 0 C0.66 0 1.32 0 2 0 C2.3125 2.6875 2.3125 2.6875 2 6 C-0.375 8.875 -0.375 8.875 -3 11 C-3.66 11 -4.32 11 -5 11 C-3.66358247 7.40195281 -1.99878366 4.2707369 0 1 C0 0.67 0 0.34 0 0 Z " fill="#816D01" transform="translate(271,154)"/>
<path d="M0 0 C5.40489519 1.52012677 8.98492628 5.27385218 13 9 C12.67 9.66 12.34 10.32 12 11 C10.53515625 9.73046875 9.0703125 8.4609375 7.60546875 7.19140625 C5.89287029 5.79128769 5.89287029 5.79128769 3 5 C1.3125 2.4375 1.3125 2.4375 0 0 Z " fill="#A58601" transform="translate(144,308)"/>
<path d="M0 0 C0.99 0 1.98 0 3 0 C2.34 4.29 1.68 8.58 1 13 C-1 11 -1 11 -1.23046875 8.90625 C-1.21628906 8.1121875 -1.20210938 7.318125 -1.1875 6.5 C-1.18105469 5.7059375 -1.17460937 4.911875 -1.16796875 4.09375 C-1 2 -1 2 0 0 Z " fill="#7F6600" transform="translate(259,180)"/>
<path d="M0 0 C1.86323318 0.25288812 3.71708432 0.57690153 5.5625 0.9375 C6.57441406 1.13214844 7.58632812 1.32679688 8.62890625 1.52734375 C9.80259766 1.76130859 9.80259766 1.76130859 11 2 C11 2.66 11 3.32 11 4 C8.03 4 5.06 4 2 4 C2 3.34 2 2.68 2 2 C1.01 1.67 0.02 1.34 -1 1 C-0.67 0.67 -0.34 0.34 0 0 Z " fill="#D3AB00" transform="translate(157,279)"/>
<path d="M0 0 C0.928125 1.175625 0.928125 1.175625 1.875 2.375 C3.89858661 4.96837647 3.89858661 4.96837647 6 7 C5.67 7.99 5.34 8.98 5 10 C4.01 9.67 3.02 9.34 2 9 C1.67 7.35 1.34 5.7 1 4 C0.34 4 -0.32 4 -1 4 C-0.67 2.68 -0.34 1.36 0 0 Z " fill="#866401" transform="translate(109,250)"/>
<path d="M0 0 C0.33 0 0.66 0 1 0 C1.33 5.28 1.66 10.56 2 16 C0.02 15.34 -1.96 14.68 -4 14 C-3.34 13.67 -2.68 13.34 -2 13 C-2 11.35 -2 9.7 -2 8 C-1.67 8 -1.34 8 -1 8 C-0.67 5.36 -0.34 2.72 0 0 Z " fill="#DDB500" transform="translate(139,217)"/>
<path d="M0 0 C0 0.33 0 0.66 0 1 C-2.08042163 1.39083065 -4.16452339 1.7621087 -6.25 2.125 C-7.99023438 2.43824219 -7.99023438 2.43824219 -9.765625 2.7578125 C-13.03554316 3.00266144 -14.32492834 2.78779541 -17 1 C-11.02197063 -1.20927172 -6.26039609 -0.93213141 0 0 Z " fill="#CAA600" transform="translate(294,402)"/>
<path d="M0 0 C0.6875 1.75 0.6875 1.75 1 4 C-0.3125 6.25 -0.3125 6.25 -2 8 C-2.66 8 -3.32 8 -4 8 C-4.33 8.99 -4.66 9.98 -5 11 C-5.33 9.68 -5.66 8.36 -6 7 C-5.01 6.67 -4.02 6.34 -3 6 C-3 5.01 -3 4.02 -3 3 C-1.5 1.3125 -1.5 1.3125 0 0 Z " fill="#A28400" transform="translate(291,321)"/>
<path d="M0 0 C0.66 0 1.32 0 2 0 C2.25 7.625 2.25 7.625 0 11 C-1.28571429 3.57142857 -1.28571429 3.57142857 0 0 Z " fill="#957901" transform="translate(303,289)"/>
<path d="M0 0 C2.31 1.98 4.62 3.96 7 6 C6.67 6.66 6.34 7.32 6 8 C5.01 7.34 4.02 6.68 3 6 C1.67432801 5.31822584 0.34246312 4.64808564 -1 4 C-0.67 2.68 -0.34 1.36 0 0 Z " fill="#B48B00" transform="translate(273,225)"/>
<path d="M0 0 C3.63 0 7.26 0 11 0 C11 0.66 11 1.32 11 2 C9.35 2 7.7 2 6 2 C5.67 3.32 5.34 4.64 5 6 C4.87625 5.071875 4.87625 5.071875 4.75 4.125 C4.08785794 1.46510021 4.08785794 1.46510021 0 0 Z " fill="#D5AD01" transform="translate(204,335)"/>
<path d="M0 0 C-2.64 1.98 -5.28 3.96 -8 6 C-8.66 5.67 -9.32 5.34 -10 5 C-9.525625 4.54625 -9.05125 4.0925 -8.5625 3.625 C-6.90972192 2.06741796 -6.90972192 2.06741796 -6 0 C-2.49056604 -1.24528302 -2.49056604 -1.24528302 0 0 Z " fill="#BA9E01" transform="translate(349,378)"/>
<path d="M0 0 C3.7952131 1.49097658 5.61042731 3.75700849 8 7 C7.01 7.495 7.01 7.495 6 8 C5.34 7.67 4.68 7.34 4 7 C4 6.34 4 5.68 4 5 C3.34 5 2.68 5 2 5 C1.34 3.35 0.68 1.7 0 0 Z " fill="#967C01" transform="translate(137,301)"/>
<path d="M0 0 C1.258125 0.12375 2.51625 0.2475 3.8125 0.375 C4.87404297 0.47941406 4.87404297 0.47941406 5.95703125 0.5859375 C8 1 8 1 11 3 C10.01 3.495 10.01 3.495 9 4 C8.01 3.67 7.02 3.34 6 3 C5.01 3 4.02 3 3 3 C2.01 2.67 1.02 2.34 0 2 C0 1.34 0 0.68 0 0 Z " fill="#FAE300" transform="translate(351,165)"/>
<path d="M0 0 C1.44096586 0.42594588 2.87768712 0.86626633 4.3125 1.3125 C5.11300781 1.55613281 5.91351563 1.79976562 6.73828125 2.05078125 C9.09964573 3.04182023 10.33879993 4.08074943 12 6 C7.53866273 4.86279638 3.79558613 3.64540851 0 1 C0 0.67 0 0.34 0 0 Z " fill="#D5BA00" transform="translate(374,133)"/>
<path d="M0 0 C0 0.99 0 1.98 0 3 C-5.14285714 7 -5.14285714 7 -9 7 C-9 6.34 -9 5.68 -9 5 C-6.03 3.35 -3.06 1.7 0 0 Z " fill="#7A6500" transform="translate(136,387)"/>
<path d="M0 0 C1.37478516 0.01740234 1.37478516 0.01740234 2.77734375 0.03515625 C3.69644531 0.04417969 4.61554688 0.05320312 5.5625 0.0625 C6.27277344 0.07410156 6.98304688 0.08570313 7.71484375 0.09765625 C7.71484375 0.42765625 7.71484375 0.75765625 7.71484375 1.09765625 C5.73484375 1.42765625 3.75484375 1.75765625 1.71484375 2.09765625 C1.71484375 2.75765625 1.71484375 3.41765625 1.71484375 4.09765625 C0.39484375 4.09765625 -0.92515625 4.09765625 -2.28515625 4.09765625 C-2.61515625 3.10765625 -2.94515625 2.11765625 -3.28515625 1.09765625 C-2.28515625 0.09765625 -2.28515625 0.09765625 0 0 Z " fill="#CDA800" transform="translate(125.28515625,281.90234375)"/>
<path d="M0 0 C0.66 0.33 1.32 0.66 2 1 C0.55746343 4.36591866 -1.33264727 6.51047079 -4 9 C-4.66 8.67 -5.32 8.34 -6 8 C-4.02 5.36 -2.04 2.72 0 0 Z " fill="#6C4F01" transform="translate(279,145)"/>
<path d="M0 0 C0.6875 1.8125 0.6875 1.8125 1 4 C-0.3125 5.75 -0.3125 5.75 -2 7 C-2.66 7 -3.32 7 -4 7 C-4.33 6.01 -4.66 5.02 -5 4 C-3.35 3.34 -1.7 2.68 0 2 C0 1.34 0 0.68 0 0 Z " fill="#998200" transform="translate(366,183)"/>
<path d="M0 0 C0.6875 1.8125 0.6875 1.8125 1 4 C-0.84159673 6.48615558 -2.00470711 7.00156904 -5 8 C-3.62845496 5.04590299 -2.01136276 2.55991624 0 0 Z " fill="#C19902" transform="translate(280,331)"/>
<path d="M0 0 C-6.75 4 -6.75 4 -9 4 C-9 3.01 -9 2.02 -9 1 C-2.25 -1.125 -2.25 -1.125 0 0 Z " fill="#BD9D01" transform="translate(189,422)"/>
<path d="M0 0 C0.66 0.33 1.32 0.66 2 1 C-1.28804981 3.91227269 -3.59885603 5.49701212 -8 6 C-5.54080489 3.3651481 -3.42227589 1.25483449 0 0 Z " fill="#FAE300" transform="translate(98,413)"/>
<path d="M0 0 C0.66 0.33 1.32 0.66 2 1 C1.67 3.97 1.34 6.94 1 10 C0.67 10 0.34 10 0 10 C-0.74926071 6.33694766 -1.2380014 3.57644848 0 0 Z " fill="#524400" transform="translate(74,186)"/>
<path d="M0 0 C3.63 0 7.26 0 11 0 C7.54754176 2.30163882 6.05261287 2.34490322 2 2 C1.34 1.34 0.68 0.68 0 0 Z " fill="#EFBA00" transform="translate(258,406)"/>
<path d="M0 0 C0 0.66 0 1.32 0 2 C-1.98 2 -3.96 2 -6 2 C-2.25 0 -2.25 0 0 0 Z " fill="#FBF000" transform="translate(149,189)"/>
<path d="M0 0 C2.475 0.99 2.475 0.99 5 2 C4.01 2.495 4.01 2.495 3 3 C2.01 2.01 1.02 1.02 0 0 Z " fill="#F8F800" transform="translate(103,182)"/>
<path d="M0 0 C1.32 0.66 2.64 1.32 4 2 C2.35 2 0.7 2 -1 2 C-0.67 1.34 -0.34 0.68 0 0 Z " fill="#FAC100" transform="translate(120,145)"/>
<path d="M0 0 C1.65 0 3.3 0 5 0 C5 0.33 5 0.66 5 1 C3.35 1 1.7 1 0 1 C0 0.67 0 0.34 0 0 Z " fill="#D59700" transform="translate(145,437)"/>
<path d="M0 0 C1.32 0.33 2.64 0.66 4 1 C2.68 1.33 1.36 1.66 0 2 C0 1.34 0 0.68 0 0 Z " fill="#F9AC00" transform="translate(253,406)"/>
<path d="M0 0 C1.65 0 3.3 0 5 0 C5 0.33 5 0.66 5 1 C3.35 1 1.7 1 0 1 C0 0.67 0 0.34 0 0 Z " fill="#FC9F00" transform="translate(233,404)"/>
<path d="M0 0 C0.33 0.99 0.66 1.98 1 3 C0.01 3.495 0.01 3.495 -1 4 C-0.67 2.68 -0.34 1.36 0 0 Z " fill="#F39100" transform="translate(326,393)"/>
<path d="M0 0 C1.32 0.33 2.64 0.66 4 1 C2.68 1.33 1.36 1.66 0 2 C0 1.34 0 0.68 0 0 Z " fill="#F9DD00" transform="translate(192,335)"/>
<path d="M0 0 C1.485 0.99 1.485 0.99 3 2 C1.68 1.67 0.36 1.34 -1 1 C-0.67 0.67 -0.34 0.34 0 0 Z " fill="#F9C200" transform="translate(173,192)"/>
<path d="M0 0 C1.485 0.99 1.485 0.99 3 2 C1.68 1.67 0.36 1.34 -1 1 C-0.67 0.67 -0.34 0.34 0 0 Z " fill="#F9A800" transform="translate(418,163)"/>
<path d="M0 0 C1.65 0 3.3 0 5 0 C5 0.33 5 0.66 5 1 C3.35 1 1.7 1 0 1 C0 0.67 0 0.34 0 0 Z " fill="#DFCE00" transform="translate(326,121)"/>
<path d="M0 0 C0.66 0.66 1.32 1.32 2 2 C1.01 2.495 1.01 2.495 0 3 C0 2.01 0 1.02 0 0 Z " fill="#F3B000" transform="translate(395,318)"/>
<path d="M0 0 C0.33 0.99 0.66 1.98 1 3 C0.34 2.67 -0.32 2.34 -1 2 C-0.67 1.34 -0.34 0.68 0 0 Z " fill="#F3F300" transform="translate(398,311)"/>
<path d="M0 0 C1 4 1 4 1 4 Z " fill="#F0F000" transform="translate(295,268)"/>
<path d="M0 0 C0 3 0 3 0 3 Z " fill="#F3B500" transform="translate(453,179)"/>
<path d="M0 0 C4 1 4 1 4 1 Z " fill="#FBB700" transform="translate(409,163)"/>
<path d="M0 0 C0.66 0.66 1.32 1.32 2 2 C1.01 2.495 1.01 2.495 0 3 C0 2.01 0 1.02 0 0 Z " fill="#F3BF00" transform="translate(140,151)"/>
<path d="M0 0 C4 1 4 1 4 1 Z " fill="#D0B200" transform="translate(129,146)"/>
<path d="M0 0 C0 3 0 3 0 3 Z " fill="#F3D500" transform="translate(109,144)"/>
<path d="M0 0 C3 1 3 1 3 1 Z " fill="#FACF00" transform="translate(139,437)"/>
<path d="M0 0 C3 1 3 1 3 1 Z " fill="#FACF00" transform="translate(274,406)"/>
<path d="M0 0 C0.66 0 1.32 0 2 0 C1.67 0.66 1.34 1.32 1 2 C0.67 1.34 0.34 0.68 0 0 Z " fill="#F5DA00" transform="translate(250,406)"/>
<path d="M0 0 C0.66 0 1.32 0 2 0 C1.67 0.66 1.34 1.32 1 2 C0.67 1.34 0.34 0.68 0 0 Z " fill="#F5F500" transform="translate(230,403)"/>
<path d="M0 0 C0.66 0 1.32 0 2 0 C1.67 0.66 1.34 1.32 1 2 C0.67 1.34 0.34 0.68 0 0 Z " fill="#DFC500" transform="translate(308,400)"/>
<path d="M0 0 C3 1 3 1 3 1 Z " fill="#FAB400" transform="translate(330,391)"/>
<path d="M0 0 C0.33 0.66 0.66 1.32 1 2 C0.34 1.67 -0.32 1.34 -1 1 C-0.67 0.67 -0.34 0.34 0 0 Z " fill="#F5F500" transform="translate(131,385)"/>
<path d="" fill="#F0A000" transform="translate(0,0)"/>
<path d="M0 0 C0.99 0.495 0.99 0.495 2 1 C1.01 1.495 1.01 1.495 0 2 C0 1.34 0 0.68 0 0 Z " fill="#F5D800" transform="translate(144,311)"/>
<path d="M0 0 C0.99 0.495 0.99 0.495 2 1 C1.01 1.495 1.01 1.495 0 2 C0 1.34 0 0.68 0 0 Z " fill="#F5CA00" transform="translate(403,287)"/>
<path d="" fill="#F0D500" transform="translate(0,0)"/>
<path d="" fill="#F0F000" transform="translate(0,0)"/>
<path d="" fill="#F0DC00" transform="translate(0,0)"/>
<path d="M0 0 C0.99 0.495 0.99 0.495 2 1 C1.01 1.495 1.01 1.495 0 2 C0 1.34 0 0.68 0 0 Z " fill="#F5DF00" transform="translate(405,251)"/>
<path d="M0 0 C0.99 0.495 0.99 0.495 2 1 C1.01 1.495 1.01 1.495 0 2 C0 1.34 0 0.68 0 0 Z " fill="#F5F500" transform="translate(405,235)"/>
<path d="M0 0 C3 1 3 1 3 1 Z " fill="#FADD00" transform="translate(260,225)"/>
<path d="M0 0 C0.33 0.66 0.66 1.32 1 2 C0.34 1.67 -0.32 1.34 -1 1 C-0.67 0.67 -0.34 0.34 0 0 Z " fill="#F5B600" transform="translate(218,203)"/>
<path d="M0 0 C0.66 0.66 1.32 1.32 2 2 C1.34 2 0.68 2 0 2 C0 1.34 0 0.68 0 0 Z " fill="#F5DA00" transform="translate(108,199)"/>
<path d="M0 0 C0.33 0.66 0.66 1.32 1 2 C0.34 1.67 -0.32 1.34 -1 1 C-0.67 0.67 -0.34 0.34 0 0 Z " fill="#F5DF00" transform="translate(185,194)"/>
<path d="M0 0 C3 1 3 1 3 1 Z " fill="#FABB00" transform="translate(351,188)"/>
<path d="" fill="#F0BA00" transform="translate(0,0)"/>
<path d="" fill="#F0F000" transform="translate(0,0)"/>
<path d="" fill="#F0D500" transform="translate(0,0)"/>
<path d="M0 0 C0.99 0.495 0.99 0.495 2 1 C1.01 1.495 1.01 1.495 0 2 C0 1.34 0 0.68 0 0 Z " fill="#F5CA00" transform="translate(436,169)"/>
<path d="M0 0 C0.33 0.66 0.66 1.32 1 2 C0.34 1.67 -0.32 1.34 -1 1 C-0.67 0.67 -0.34 0.34 0 0 Z " fill="#F5CD00" transform="translate(423,164)"/>
<path d="M0 0 C0.66 0.66 1.32 1.32 2 2 C1.34 2 0.68 2 0 2 C0 1.34 0 0.68 0 0 Z " fill="#F57A00" transform="translate(405,156)"/>
<path d="M0 0 C3 1 3 1 3 1 Z " fill="#FAC000" transform="translate(101,148)"/>
<path d="M0 0 C3 1 3 1 3 1 Z " fill="#FACF00" transform="translate(84,148)"/>
<path d="M0 0 C3 1 3 1 3 1 Z " fill="#C3C300" transform="translate(75,148)"/>
<path d="M0 0 C3 1 3 1 3 1 Z " fill="#FAA700" transform="translate(125,146)"/>
<path d="M0 0 C0.99 0.495 0.99 0.495 2 1 C1.01 1.495 1.01 1.495 0 2 C0 1.34 0 0.68 0 0 Z " fill="#F5A400" transform="translate(393,139)"/>
<path d="M0 0 C3 1 3 1 3 1 Z " fill="#CF7F00" transform="translate(80,113)"/>
<path d="" fill="#000000" transform="translate(0,0)"/>
<path d="" fill="#000000" transform="translate(0,0)"/>
<path d="" fill="#000000" transform="translate(0,0)"/>
<path d="" fill="#000000" transform="translate(0,0)"/>
<path d="" fill="#000000" transform="translate(0,0)"/>
<path d="" fill="#000000" transform="translate(0,0)"/>
<path d="" fill="#000000" transform="translate(0,0)"/>
<path d="" fill="#000000" transform="translate(0,0)"/>
<path d="" fill="#000000" transform="translate(0,0)"/>
<path d="M0 0 C2 1 2 1 2 1 Z " fill="#F7B700" transform="translate(123,437)"/>
<path d="" fill="#3C3C00" transform="translate(0,0)"/>
<path d="" fill="#F0A000" transform="translate(0,0)"/>
<path d="" fill="#F00000" transform="translate(0,0)"/>
<path d="M0 0 C2 1 2 1 2 1 Z " fill="#F77B00" transform="translate(203,412)"/>
<path d="M0 0 C2 1 2 1 2 1 Z " fill="#F7BB00" transform="translate(282,406)"/>
<path d="M0 0 C2 1 2 1 2 1 Z " fill="#F7F700" transform="translate(240,405)"/>
<path d="" fill="#F0B400" transform="translate(0,0)"/>
<path d="" fill="#D2D200" transform="translate(0,0)"/>
<path d="M0 0 C2 1 2 1 2 1 Z " fill="#F7B700" transform="translate(323,394)"/>
<path d="M0 0 C2 1 2 1 2 1 Z " fill="#F7CD00" transform="translate(119,393)"/>
<path d="" fill="#F0F000" transform="translate(0,0)"/>
<path d="" fill="#C8C800" transform="translate(0,0)"/>
<path d="M0 0 C2 1 2 1 2 1 Z " fill="#F7BB00" transform="translate(354,375)"/>
<path d="" fill="#F0F000" transform="translate(0,0)"/>
<path d="M0 0 C2 1 2 1 2 1 Z " fill="#F7F700" transform="translate(175,358)"/>
<path d="" fill="#F0F000" transform="translate(0,0)"/>
<path d="M0 0 C2 1 2 1 2 1 Z " fill="#F7B700" transform="translate(167,328)"/>
<path d="M0 0 C2 1 2 1 2 1 Z " fill="#F7F700" transform="translate(164,328)"/>
<path d="" fill="#F08C00" transform="translate(0,0)"/>
<path d="" fill="#F0C800" transform="translate(0,0)"/>
<path d="" fill="#F0B400" transform="translate(0,0)"/>
<path d="" fill="#F0D200" transform="translate(0,0)"/>
<path d="" fill="#F0F000" transform="translate(0,0)"/>
<path d="" fill="#F0C800" transform="translate(0,0)"/>
<path d="" fill="#F0F000" transform="translate(0,0)"/>
<path d="" fill="#F0C800" transform="translate(0,0)"/>
<path d="M0 0 C2 1 2 1 2 1 Z " fill="#F7B700" transform="translate(85,219)"/>
<path d="" fill="#F0F000" transform="translate(0,0)"/>
<path d="M0 0 C2 1 2 1 2 1 Z " fill="#F79900" transform="translate(209,201)"/>
<path d="M0 0 C2 1 2 1 2 1 Z " fill="#F7CD00" transform="translate(108,192)"/>
<path d="M0 0 C2 1 2 1 2 1 Z " fill="#F7BB00" transform="translate(434,191)"/>
<path d="" fill="#F0F000" transform="translate(0,0)"/>
<path d="M0 0 C2 1 2 1 2 1 Z " fill="#F7F700" transform="translate(105,177)"/>
<path d="" fill="#F0F000" transform="translate(0,0)"/>
<path d="" fill="#F0F000" transform="translate(0,0)"/>
<path d="M0 0 C2 1 2 1 2 1 Z " fill="#E5C100" transform="translate(137,146)"/>
<path d="M0 0 C2 1 2 1 2 1 Z " fill="#F7F700" transform="translate(396,145)"/>
<path d="" fill="#F0F000" transform="translate(0,0)"/>
<path d="" fill="#F0F000" transform="translate(0,0)"/>
<path d="" fill="#F08C00" transform="translate(0,0)"/>
<path d="M0 0 C2 1 2 1 2 1 Z " fill="#D9D900" transform="translate(109,128)"/>
<path d="M0 0 C2 1 2 1 2 1 Z " fill="#F7F700" transform="translate(309,125)"/>
<path d="M0 0 C2 1 2 1 2 1 Z " fill="#F7B700" transform="translate(323,122)"/>
<path d="M0 0 C2 1 2 1 2 1 Z " fill="#7B7B00" transform="translate(85,113)"/>
<path d="M0 0 C2 1 2 1 2 1 Z " fill="#8F8F00" transform="translate(77,113)"/>
<path d="" fill="#000000" transform="translate(0,0)"/>
<path d="" fill="#000000" transform="translate(0,0)"/>
<path d="" fill="#000000" transform="translate(0,0)"/>
<path d="" fill="#000000" transform="translate(0,0)"/>
<path d="" fill="#000000" transform="translate(0,0)"/>
<path d="" fill="#000000" transform="translate(0,0)"/>
<path d="" fill="#000000" transform="translate(0,0)"/>
<path d="" fill="#000000" transform="translate(0,0)"/>
<path d="" fill="#000000" transform="translate(0,0)"/>
<path d="" fill="#000000" transform="translate(0,0)"/>
<path d="" fill="#000000" transform="translate(0,0)"/>
<path d="" fill="#000000" transform="translate(0,0)"/>
<path d="" fill="#000000" transform="translate(0,0)"/>
<path d="" fill="#000000" transform="translate(0,0)"/>
<path d="" fill="#000000" transform="translate(0,0)"/>
<path d="" fill="#000000" transform="translate(0,0)"/>
<path d="" fill="#000000" transform="translate(0,0)"/>
<path d="" fill="#000000" transform="translate(0,0)"/>
<path d="" fill="#000000" transform="translate(0,0)"/>
<path d="" fill="#000000" transform="translate(0,0)"/>
<path d="" fill="#000000" transform="translate(0,0)"/>
<path d="" fill="#000000" transform="translate(0,0)"/>
<path d="" fill="#000000" transform="translate(0,0)"/>
<path d="" fill="#000000" transform="translate(0,0)"/>
<path d="" fill="#000000" transform="translate(0,0)"/>
<path d="" fill="#000000" transform="translate(0,0)"/>
<path d="" fill="#000000" transform="translate(0,0)"/>
<path d="" fill="#000000" transform="translate(0,0)"/>
<path d="" fill="#000000" transform="translate(0,0)"/>
<path d="" fill="#000000" transform="translate(0,0)"/>
<path d="" fill="#000000" transform="translate(0,0)"/>
<path d="" fill="#000000" transform="translate(0,0)"/>
<path d="" fill="#000000" transform="translate(0,0)"/>
<path d="" fill="#000000" transform="translate(0,0)"/>
<path d="" fill="#000000" transform="translate(0,0)"/>
<path d="" fill="#000000" transform="translate(0,0)"/>
<path d="" fill="#000000" transform="translate(0,0)"/>
<path d="" fill="#000000" transform="translate(0,0)"/>
<path d="" fill="#000000" transform="translate(0,0)"/>
<path d="" fill="#000000" transform="translate(0,0)"/>
<path d="" fill="#000000" transform="translate(0,0)"/>
<path d="" fill="#000000" transform="translate(0,0)"/>
<path d="" fill="#000000" transform="translate(0,0)"/>
<path d="" fill="#000000" transform="translate(0,0)"/>
<path d="" fill="#000000" transform="translate(0,0)"/>
<path d="" fill="#000000" transform="translate(0,0)"/>
<path d="" fill="#000000" transform="translate(0,0)"/>
<path d="" fill="#000000" transform="translate(0,0)"/>
<path d="" fill="#000000" transform="translate(0,0)"/>
<path d="" fill="#000000" transform="translate(0,0)"/>
<path d="" fill="#000000" transform="translate(0,0)"/>
<path d="" fill="#000000" transform="translate(0,0)"/>
<path d="" fill="#000000" transform="translate(0,0)"/>
<path d="" fill="#000000" transform="translate(0,0)"/>
<path d="" fill="#000000" transform="translate(0,0)"/>
<path d="" fill="#000000" transform="translate(0,0)"/>
<path d="" fill="#000000" transform="translate(0,0)"/>
<path d="" fill="#000000" transform="translate(0,0)"/>
<path d="" fill="#000000" transform="translate(0,0)"/>
<path d="" fill="#000000" transform="translate(0,0)"/>
<path d="" fill="#000000" transform="translate(0,0)"/>
<path d="" fill="#000000" transform="translate(0,0)"/>
<path d="" fill="#000000" transform="translate(0,0)"/>
<path d="" fill="#780000" transform="translate(0,0)"/>
<path d="" fill="#000000" transform="translate(0,0)"/>
<path d="" fill="#000000" transform="translate(0,0)"/>
<path d="" fill="#F00000" transform="translate(0,0)"/>
<path d="" fill="#787800" transform="translate(0,0)"/>
<path d="" fill="#000000" transform="translate(0,0)"/>
<path d="" fill="#000000" transform="translate(0,0)"/>
<path d="" fill="#F0F000" transform="translate(0,0)"/>
<path d="" fill="#000000" transform="translate(0,0)"/>
<path d="" fill="#F0F000" transform="translate(0,0)"/>
<path d="" fill="#000000" transform="translate(0,0)"/>
<path d="" fill="#F0F000" transform="translate(0,0)"/>
<path d="" fill="#F07800" transform="translate(0,0)"/>
<path d="" fill="#F0F000" transform="translate(0,0)"/>
<path d="" fill="#F0F000" transform="translate(0,0)"/>
<path d="" fill="#F0F000" transform="translate(0,0)"/>
<path d="" fill="#F0F000" transform="translate(0,0)"/>
<path d="" fill="#000000" transform="translate(0,0)"/>
<path d="" fill="#A0A000" transform="translate(0,0)"/>
<path d="" fill="#F07800" transform="translate(0,0)"/>
<path d="" fill="#787800" transform="translate(0,0)"/>
<path d="" fill="#F0F000" transform="translate(0,0)"/>
<path d="" fill="#F07800" transform="translate(0,0)"/>
<path d="" fill="#A0A000" transform="translate(0,0)"/>
<path d="" fill="#F07800" transform="translate(0,0)"/>
<path d="" fill="#000000" transform="translate(0,0)"/>
<path d="" fill="#F0F000" transform="translate(0,0)"/>
<path d="" fill="#F00000" transform="translate(0,0)"/>
<path d="" fill="#F0F000" transform="translate(0,0)"/>
<path d="" fill="#909000" transform="translate(0,0)"/>
<path d="" fill="#F00000" transform="translate(0,0)"/>
<path d="" fill="#000000" transform="translate(0,0)"/>
<path d="" fill="#F00000" transform="translate(0,0)"/>
<path d="" fill="#F07800" transform="translate(0,0)"/>
<path d="" fill="#B4B400" transform="translate(0,0)"/>
<path d="" fill="#F00000" transform="translate(0,0)"/>
<path d="" fill="#F00000" transform="translate(0,0)"/>
<path d="" fill="#F0F000" transform="translate(0,0)"/>
<path d="" fill="#F0F000" transform="translate(0,0)"/>
<path d="" fill="#F0F000" transform="translate(0,0)"/>
<path d="" fill="#B4B400" transform="translate(0,0)"/>
<path d="" fill="#F0F000" transform="translate(0,0)"/>
<path d="" fill="#F0F000" transform="translate(0,0)"/>
<path d="" fill="#F0F000" transform="translate(0,0)"/>
<path d="" fill="#F0F000" transform="translate(0,0)"/>
<path d="" fill="#787800" transform="translate(0,0)"/>
<path d="" fill="#A0A000" transform="translate(0,0)"/>
<path d="" fill="#F0A000" transform="translate(0,0)"/>
<path d="" fill="#F0F000" transform="translate(0,0)"/>
<path d="" fill="#F0F000" transform="translate(0,0)"/>
<path d="" fill="#F07800" transform="translate(0,0)"/>
<path d="" fill="#F0F000" transform="translate(0,0)"/>
<path d="" fill="#F07800" transform="translate(0,0)"/>
<path d="" fill="#F0F000" transform="translate(0,0)"/>
<path d="" fill="#F07800" transform="translate(0,0)"/>
<path d="" fill="#F0F000" transform="translate(0,0)"/>
<path d="" fill="#F0F000" transform="translate(0,0)"/>
<path d="" fill="#F07800" transform="translate(0,0)"/>
<path d="" fill="#787800" transform="translate(0,0)"/>
<path d="" fill="#F0F000" transform="translate(0,0)"/>
<path d="" fill="#F0A000" transform="translate(0,0)"/>
<path d="" fill="#F0F000" transform="translate(0,0)"/>
<path d="" fill="#A0A000" transform="translate(0,0)"/>
<path d="" fill="#F0F000" transform="translate(0,0)"/>
<path d="" fill="#000000" transform="translate(0,0)"/>
<path d="" fill="#F07800" transform="translate(0,0)"/>
<path d="" fill="#F07800" transform="translate(0,0)"/>
<path d="" fill="#F0F000" transform="translate(0,0)"/>
<path d="" fill="#F0F000" transform="translate(0,0)"/>
<path d="" fill="#F0F000" transform="translate(0,0)"/>
<path d="" fill="#F0F000" transform="translate(0,0)"/>
<path d="" fill="#F0F000" transform="translate(0,0)"/>
<path d="" fill="#F07800" transform="translate(0,0)"/>
<path d="" fill="#F0F000" transform="translate(0,0)"/>
<path d="" fill="#F0F000" transform="translate(0,0)"/>
<path d="" fill="#F07800" transform="translate(0,0)"/>
<path d="" fill="#F0F000" transform="translate(0,0)"/>
<path d="" fill="#F07800" transform="translate(0,0)"/>
<path d="" fill="#F0F000" transform="translate(0,0)"/>
<path d="" fill="#F07800" transform="translate(0,0)"/>
<path d="" fill="#A0A000" transform="translate(0,0)"/>
<path d="" fill="#F0F000" transform="translate(0,0)"/>
<path d="" fill="#F0F000" transform="translate(0,0)"/>
<path d="" fill="#F0A000" transform="translate(0,0)"/>
<path d="" fill="#F0F000" transform="translate(0,0)"/>
<path d="" fill="#F0F000" transform="translate(0,0)"/>
<path d="" fill="#F0F000" transform="translate(0,0)"/>
<path d="" fill="#F0F000" transform="translate(0,0)"/>
<path d="" fill="#F0F000" transform="translate(0,0)"/>
<path d="" fill="#F0F000" transform="translate(0,0)"/>
<path d="" fill="#F0F000" transform="translate(0,0)"/>
<path d="" fill="#F0B400" transform="translate(0,0)"/>
<path d="" fill="#F0A000" transform="translate(0,0)"/>
<path d="" fill="#F0F000" transform="translate(0,0)"/>
<path d="" fill="#F07800" transform="translate(0,0)"/>
<path d="" fill="#F0F000" transform="translate(0,0)"/>
<path d="" fill="#F0F000" transform="translate(0,0)"/>
<path d="" fill="#F0F000" transform="translate(0,0)"/>
<path d="" fill="#F0A000" transform="translate(0,0)"/>
<path d="" fill="#F0F000" transform="translate(0,0)"/>
<path d="" fill="#F0F000" transform="translate(0,0)"/>
<path d="" fill="#F0F000" transform="translate(0,0)"/>
<path d="" fill="#F0F000" transform="translate(0,0)"/>
<path d="" fill="#F0F000" transform="translate(0,0)"/>
<path d="" fill="#F0F000" transform="translate(0,0)"/>
<path d="" fill="#F0F000" transform="translate(0,0)"/>
<path d="" fill="#F0F000" transform="translate(0,0)"/>
<path d="" fill="#F0F000" transform="translate(0,0)"/>
<path d="" fill="#F0F000" transform="translate(0,0)"/>
<path d="" fill="#F07800" transform="translate(0,0)"/>
<path d="" fill="#F0F000" transform="translate(0,0)"/>
<path d="" fill="#F0F000" transform="translate(0,0)"/>
<path d="" fill="#F0A000" transform="translate(0,0)"/>
<path d="" fill="#F0F000" transform="translate(0,0)"/>
<path d="" fill="#F0F000" transform="translate(0,0)"/>
<path d="" fill="#F07800" transform="translate(0,0)"/>
<path d="" fill="#F07800" transform="translate(0,0)"/>
<path d="" fill="#F0F000" transform="translate(0,0)"/>
<path d="" fill="#F0A000" transform="translate(0,0)"/>
<path d="" fill="#F07800" transform="translate(0,0)"/>
<path d="" fill="#F0C800" transform="translate(0,0)"/>
<path d="" fill="#F0F000" transform="translate(0,0)"/>
<path d="" fill="#F07800" transform="translate(0,0)"/>
<path d="" fill="#F0F000" transform="translate(0,0)"/>
<path d="" fill="#F0F000" transform="translate(0,0)"/>
<path d="" fill="#F07800" transform="translate(0,0)"/>
<path d="" fill="#F07800" transform="translate(0,0)"/>
<path d="" fill="#F0F000" transform="translate(0,0)"/>
<path d="" fill="#F0F000" transform="translate(0,0)"/>
<path d="" fill="#F0F000" transform="translate(0,0)"/>
<path d="" fill="#F0A000" transform="translate(0,0)"/>
<path d="" fill="#F0A000" transform="translate(0,0)"/>
<path d="" fill="#000000" transform="translate(0,0)"/>
<path d="" fill="#F0F000" transform="translate(0,0)"/>
<path d="" fill="#F0F000" transform="translate(0,0)"/>
<path d="" fill="#F0F000" transform="translate(0,0)"/>
<path d="" fill="#F0F000" transform="translate(0,0)"/>
<path d="" fill="#F0F000" transform="translate(0,0)"/>
<path d="" fill="#F0A000" transform="translate(0,0)"/>
<path d="" fill="#F0F000" transform="translate(0,0)"/>
<path d="" fill="#F0F000" transform="translate(0,0)"/>
<path d="" fill="#F0F000" transform="translate(0,0)"/>
<path d="" fill="#F0A000" transform="translate(0,0)"/>
<path d="" fill="#F0F000" transform="translate(0,0)"/>
<path d="" fill="#F07800" transform="translate(0,0)"/>
<path d="" fill="#F0F000" transform="translate(0,0)"/>
<path d="" fill="#F07800" transform="translate(0,0)"/>
<path d="" fill="#F0F000" transform="translate(0,0)"/>
<path d="" fill="#000000" transform="translate(0,0)"/>
<path d="" fill="#F0F000" transform="translate(0,0)"/>
<path d="" fill="#F0F000" transform="translate(0,0)"/>
<path d="" fill="#F0F000" transform="translate(0,0)"/>
<path d="" fill="#F0F000" transform="translate(0,0)"/>
<path d="" fill="#F0F000" transform="translate(0,0)"/>
<path d="" fill="#000000" transform="translate(0,0)"/>
<path d="" fill="#F0A000" transform="translate(0,0)"/>
<path d="" fill="#F0F000" transform="translate(0,0)"/>
<path d="" fill="#F0F000" transform="translate(0,0)"/>
<path d="" fill="#000000" transform="translate(0,0)"/>
<path d="" fill="#F0F000" transform="translate(0,0)"/>
<path d="" fill="#F07800" transform="translate(0,0)"/>
<path d="" fill="#F0F000" transform="translate(0,0)"/>
<path d="" fill="#F0F000" transform="translate(0,0)"/>
<path d="" fill="#F0F000" transform="translate(0,0)"/>
<path d="" fill="#F0F000" transform="translate(0,0)"/>
<path d="" fill="#F0B400" transform="translate(0,0)"/>
<path d="" fill="#F0A000" transform="translate(0,0)"/>
<path d="" fill="#F0A000" transform="translate(0,0)"/>
<path d="" fill="#F0F000" transform="translate(0,0)"/>
<path d="" fill="#000000" transform="translate(0,0)"/>
<path d="" fill="#F0B400" transform="translate(0,0)"/>
<path d="" fill="#F0F000" transform="translate(0,0)"/>
<path d="" fill="#F07800" transform="translate(0,0)"/>
<path d="" fill="#F07800" transform="translate(0,0)"/>
<path d="" fill="#F0F000" transform="translate(0,0)"/>
<path d="" fill="#F0F000" transform="translate(0,0)"/>
<path d="" fill="#F0F000" transform="translate(0,0)"/>
<path d="" fill="#F0A000" transform="translate(0,0)"/>
<path d="" fill="#F0F000" transform="translate(0,0)"/>
<path d="" fill="#F0F000" transform="translate(0,0)"/>
<path d="" fill="#F0F000" transform="translate(0,0)"/>
<path d="" fill="#F0F000" transform="translate(0,0)"/>
<path d="" fill="#F0F000" transform="translate(0,0)"/>
<path d="" fill="#F0F000" transform="translate(0,0)"/>
<path d="" fill="#F0F000" transform="translate(0,0)"/>
<path d="" fill="#F0F000" transform="translate(0,0)"/>
<path d="" fill="#F07800" transform="translate(0,0)"/>
<path d="" fill="#F0F000" transform="translate(0,0)"/>
<path d="" fill="#F0F000" transform="translate(0,0)"/>
<path d="" fill="#F0A000" transform="translate(0,0)"/>
<path d="" fill="#F0F000" transform="translate(0,0)"/>
<path d="" fill="#F0A000" transform="translate(0,0)"/>
<path d="" fill="#F0F000" transform="translate(0,0)"/>
<path d="" fill="#F0A000" transform="translate(0,0)"/>
<path d="" fill="#F0F000" transform="translate(0,0)"/>
<path d="" fill="#F0F000" transform="translate(0,0)"/>
<path d="" fill="#F0F000" transform="translate(0,0)"/>
<path d="" fill="#F0F000" transform="translate(0,0)"/>
<path d="" fill="#F0F000" transform="translate(0,0)"/>
<path d="" fill="#F0A000" transform="translate(0,0)"/>
<path d="" fill="#F0F000" transform="translate(0,0)"/>
<path d="" fill="#F0F000" transform="translate(0,0)"/>
<path d="" fill="#F0F000" transform="translate(0,0)"/>
<path d="" fill="#F0F000" transform="translate(0,0)"/>
<path d="" fill="#F0F000" transform="translate(0,0)"/>
<path d="" fill="#F0F000" transform="translate(0,0)"/>
<path d="" fill="#F0F000" transform="translate(0,0)"/>
<path d="" fill="#F0A000" transform="translate(0,0)"/>
<path d="" fill="#F0F000" transform="translate(0,0)"/>
<path d="" fill="#F0F000" transform="translate(0,0)"/>
<path d="" fill="#F0F000" transform="translate(0,0)"/>
<path d="" fill="#F0F000" transform="translate(0,0)"/>
<path d="" fill="#F0F000" transform="translate(0,0)"/>
<path d="" fill="#F0F000" transform="translate(0,0)"/>
<path d="" fill="#F0F000" transform="translate(0,0)"/>
<path d="" fill="#F0F000" transform="translate(0,0)"/>
<path d="" fill="#F0F000" transform="translate(0,0)"/>
<path d="" fill="#F0F000" transform="translate(0,0)"/>
<path d="" fill="#000000" transform="translate(0,0)"/>
<path d="" fill="#F0F000" transform="translate(0,0)"/>
<path d="" fill="#F0F000" transform="translate(0,0)"/>
<path d="" fill="#F0F000" transform="translate(0,0)"/>
<path d="" fill="#F0F000" transform="translate(0,0)"/>
<path d="" fill="#F0F000" transform="translate(0,0)"/>
<path d="" fill="#F0F000" transform="translate(0,0)"/>
<path d="" fill="#F0A000" transform="translate(0,0)"/>
<path d="" fill="#F0F000" transform="translate(0,0)"/>
<path d="" fill="#F0F000" transform="translate(0,0)"/>
<path d="" fill="#F0F000" transform="translate(0,0)"/>
<path d="" fill="#F0F000" transform="translate(0,0)"/>
<path d="" fill="#F0F000" transform="translate(0,0)"/>
<path d="" fill="#F0F000" transform="translate(0,0)"/>
<path d="" fill="#F0F000" transform="translate(0,0)"/>
<path d="" fill="#F0F000" transform="translate(0,0)"/>
<path d="" fill="#F0F000" transform="translate(0,0)"/>
<path d="" fill="#F0F000" transform="translate(0,0)"/>
<path d="" fill="#F0F000" transform="translate(0,0)"/>
<path d="" fill="#F0F000" transform="translate(0,0)"/>
<path d="" fill="#F0F000" transform="translate(0,0)"/>
<path d="" fill="#F0F000" transform="translate(0,0)"/>
<path d="" fill="#F0F000" transform="translate(0,0)"/>
<path d="" fill="#F0F000" transform="translate(0,0)"/>
<path d="" fill="#F0F000" transform="translate(0,0)"/>
<path d="" fill="#F0F000" transform="translate(0,0)"/>
<path d="" fill="#F0F000" transform="translate(0,0)"/>
<path d="" fill="#F0F000" transform="translate(0,0)"/>
<path d="" fill="#F0F000" transform="translate(0,0)"/>
<path d="" fill="#F0F000" transform="translate(0,0)"/>
<path d="" fill="#F0A000" transform="translate(0,0)"/>
<path d="" fill="#F07800" transform="translate(0,0)"/>
<path d="" fill="#000000" transform="translate(0,0)"/>
<path d="" fill="#F0F000" transform="translate(0,0)"/>
<path d="" fill="#F0A000" transform="translate(0,0)"/>
<path d="" fill="#F0B400" transform="translate(0,0)"/>
<path d="" fill="#F0F000" transform="translate(0,0)"/>
<path d="" fill="#F0F000" transform="translate(0,0)"/>
<path d="" fill="#F0F000" transform="translate(0,0)"/>
<path d="" fill="#F07800" transform="translate(0,0)"/>
<path d="" fill="#F0F000" transform="translate(0,0)"/>
<path d="" fill="#F0F000" transform="translate(0,0)"/>
<path d="" fill="#F07800" transform="translate(0,0)"/>
<path d="" fill="#F07800" transform="translate(0,0)"/>
<path d="" fill="#F0F000" transform="translate(0,0)"/>
<path d="" fill="#F07800" transform="translate(0,0)"/>
<path d="" fill="#F0F000" transform="translate(0,0)"/>
<path d="" fill="#F0F000" transform="translate(0,0)"/>
<path d="" fill="#F0F000" transform="translate(0,0)"/>
<path d="" fill="#F0F000" transform="translate(0,0)"/>
<path d="" fill="#F0F000" transform="translate(0,0)"/>
<path d="" fill="#F07800" transform="translate(0,0)"/>
<path d="" fill="#F0F000" transform="translate(0,0)"/>
<path d="" fill="#F07800" transform="translate(0,0)"/>
<path d="" fill="#F0F000" transform="translate(0,0)"/>
<path d="" fill="#F0F000" transform="translate(0,0)"/>
<path d="" fill="#F0F000" transform="translate(0,0)"/>
<path d="" fill="#F0F000" transform="translate(0,0)"/>
<path d="" fill="#F07800" transform="translate(0,0)"/>
<path d="" fill="#F0F000" transform="translate(0,0)"/>
<path d="" fill="#F07800" transform="translate(0,0)"/>
<path d="" fill="#F0F000" transform="translate(0,0)"/>
<path d="" fill="#F0F000" transform="translate(0,0)"/>
<path d="" fill="#F0F000" transform="translate(0,0)"/>
<path d="" fill="#F0F000" transform="translate(0,0)"/>
<path d="" fill="#F0F000" transform="translate(0,0)"/>
<path d="" fill="#F07800" transform="translate(0,0)"/>
<path d="" fill="#F0F000" transform="translate(0,0)"/>
<path d="" fill="#F0F000" transform="translate(0,0)"/>
<path d="" fill="#F0A000" transform="translate(0,0)"/>
<path d="" fill="#F07800" transform="translate(0,0)"/>
<path d="" fill="#F0F000" transform="translate(0,0)"/>
<path d="" fill="#F0F000" transform="translate(0,0)"/>
<path d="" fill="#F07800" transform="translate(0,0)"/>
<path d="" fill="#000000" transform="translate(0,0)"/>
<path d="" fill="#F0F000" transform="translate(0,0)"/>
<path d="" fill="#F0F000" transform="translate(0,0)"/>
<path d="" fill="#F0F000" transform="translate(0,0)"/>
<path d="" fill="#F0F000" transform="translate(0,0)"/>
<path d="" fill="#F07800" transform="translate(0,0)"/>
<path d="" fill="#F0F000" transform="translate(0,0)"/>
<path d="" fill="#F0F000" transform="translate(0,0)"/>
<path d="" fill="#F0A000" transform="translate(0,0)"/>
<path d="" fill="#F0F000" transform="translate(0,0)"/>
<path d="" fill="#F0A000" transform="translate(0,0)"/>
<path d="" fill="#F0F000" transform="translate(0,0)"/>
<path d="" fill="#F0F000" transform="translate(0,0)"/>
<path d="" fill="#F0F000" transform="translate(0,0)"/>
<path d="" fill="#F0F000" transform="translate(0,0)"/>
<path d="" fill="#F0F000" transform="translate(0,0)"/>
<path d="" fill="#B4B400" transform="translate(0,0)"/>
<path d="" fill="#F07800" transform="translate(0,0)"/>
<path d="" fill="#F0F000" transform="translate(0,0)"/>
<path d="" fill="#F0F000" transform="translate(0,0)"/>
<path d="" fill="#F07800" transform="translate(0,0)"/>
<path d="" fill="#F07800" transform="translate(0,0)"/>
<path d="" fill="#F0F000" transform="translate(0,0)"/>
<path d="" fill="#F00000" transform="translate(0,0)"/>
<path d="" fill="#F0F000" transform="translate(0,0)"/>
<path d="" fill="#F0F000" transform="translate(0,0)"/>
<path d="" fill="#F0F000" transform="translate(0,0)"/>
<path d="" fill="#F0F000" transform="translate(0,0)"/>
<path d="" fill="#F0F000" transform="translate(0,0)"/>
<path d="" fill="#F00000" transform="translate(0,0)"/>
<path d="" fill="#F0F000" transform="translate(0,0)"/>
<path d="" fill="#F07800" transform="translate(0,0)"/>
<path d="" fill="#F0F000" transform="translate(0,0)"/>
<path d="" fill="#F0F000" transform="translate(0,0)"/>
<path d="" fill="#F0F000" transform="translate(0,0)"/>
<path d="" fill="#F0F000" transform="translate(0,0)"/>
<path d="" fill="#F0F000" transform="translate(0,0)"/>
<path d="" fill="#F0F000" transform="translate(0,0)"/>
<path d="" fill="#F0F000" transform="translate(0,0)"/>
<path d="" fill="#F00000" transform="translate(0,0)"/>
<path d="" fill="#F00000" transform="translate(0,0)"/>
<path d="" fill="#000000" transform="translate(0,0)"/>
<path d="" fill="#F00000" transform="translate(0,0)"/>
<path d="" fill="#F00000" transform="translate(0,0)"/>
<path d="" fill="#000000" transform="translate(0,0)"/>
<path d="" fill="#000000" transform="translate(0,0)"/>
<path d="" fill="#000000" transform="translate(0,0)"/>
<path d="" fill="#000000" transform="translate(0,0)"/>
<path d="" fill="#000000" transform="translate(0,0)"/>
<path d="" fill="#000000" transform="translate(0,0)"/>
<path d="" fill="#000000" transform="translate(0,0)"/>
<path d="" fill="#787800" transform="translate(0,0)"/>
<path d="" fill="#000000" transform="translate(0,0)"/>
<path d="" fill="#000000" transform="translate(0,0)"/>
<path d="" fill="#000000" transform="translate(0,0)"/>
<path d="" fill="#000000" transform="translate(0,0)"/>
<path d="" fill="#000000" transform="translate(0,0)"/>
<path d="" fill="#780000" transform="translate(0,0)"/>
<path d="" fill="#000000" transform="translate(0,0)"/>
<path d="" fill="#780000" transform="translate(0,0)"/>
<path d="" fill="#000000" transform="translate(0,0)"/>
<path d="" fill="#000000" transform="translate(0,0)"/>
<path d="" fill="#000000" transform="translate(0,0)"/>
<path d="" fill="#000000" transform="translate(0,0)"/>
<path d="" fill="#000000" transform="translate(0,0)"/>
<path d="" fill="#000000" transform="translate(0,0)"/>
<path d="" fill="#000000" transform="translate(0,0)"/>
<path d="" fill="#000000" transform="translate(0,0)"/>
<path d="" fill="#000000" transform="translate(0,0)"/>
<path d="" fill="#000000" transform="translate(0,0)"/>
<path d="" fill="#000000" transform="translate(0,0)"/>
<path d="" fill="#000000" transform="translate(0,0)"/>
<path d="" fill="#000000" transform="translate(0,0)"/>
<path d="" fill="#000000" transform="translate(0,0)"/>
<path d="" fill="#000000" transform="translate(0,0)"/>
<path d="" fill="#000000" transform="translate(0,0)"/>
<path d="" fill="#000000" transform="translate(0,0)"/>
<path d="" fill="#000000" transform="translate(0,0)"/>
<path d="" fill="#000000" transform="translate(0,0)"/>
<path d="" fill="#000000" transform="translate(0,0)"/>
<path d="" fill="#000000" transform="translate(0,0)"/>
<path d="" fill="#000000" transform="translate(0,0)"/>
<path d="" fill="#000000" transform="translate(0,0)"/>
<path d="" fill="#000000" transform="translate(0,0)"/>
<path d="" fill="#000000" transform="translate(0,0)"/>
<path d="" fill="#000000" transform="translate(0,0)"/>
<path d="" fill="#000000" transform="translate(0,0)"/>
</svg>
